<svg width="24" height="24" viewBox="0 0 24 24" fill="none" xmlns="http://www.w3.org/2000/svg">
<path d="M19.87 5.63H4.29003C3.84975 5.6308 3.42773 5.80605 3.1164 6.11738C2.80507 6.4287 2.62982 6.85073 2.62903 7.29101V17.26C2.62982 17.7003 2.80507 18.1223 3.1164 18.4336C3.42773 18.745 3.84975 18.9202 4.29003 18.921H19.87C20.31 18.9197 20.7315 18.7442 21.0424 18.4329C21.3533 18.1217 21.5282 17.6999 21.529 17.26V7.29101C21.5282 6.85107 21.3533 6.42935 21.0424 6.11808C20.7315 5.80681 20.31 5.63133 19.87 5.63ZM19.615 6.73801L12.51 13.867C12.3917 13.9718 12.2391 14.0297 12.081 14.0297C11.923 14.0297 11.7704 13.9718 11.652 13.867L4.54503 6.73801H19.615ZM3.73703 17.056V7.495L8.50203 12.276L3.73703 17.056ZM4.54603 17.813L9.28403 13.06L10.867 14.648C11.1934 14.9611 11.6282 15.1359 12.0805 15.1359C12.5328 15.1359 12.9676 14.9611 13.294 14.648L14.877 13.06L19.615 17.813H4.54603ZM20.429 17.056L15.659 12.276L20.429 7.495V17.056Z" fill="#CCCCCC"/>
</svg>
