<svg width="28" height="28" viewBox="0 0 28 28" fill="none" xmlns="http://www.w3.org/2000/svg">
<path d="M28 14C27.9996 11.3246 27.2327 8.70526 25.7899 6.45219C24.3472 4.19912 22.2891 2.40663 19.8593 1.28692C17.4294 0.167212 14.7296 -0.232818 12.0795 0.13419C9.42939 0.501198 6.93992 1.61987 4.90583 3.35778C2.87174 5.09568 1.37821 7.38004 0.602065 9.94039C-0.174081 12.5008 -0.200342 15.2299 0.52639 17.8047C1.25312 20.3795 2.70241 22.6922 4.70268 24.4689C6.70295 26.2457 9.17043 27.412 11.813 27.83V18.047H8.258V14H11.813V10.916C11.813 7.40796 13.902 5.46896 17.101 5.46896C18.1509 5.48342 19.1984 5.57467 20.235 5.74196V9.18796H18.468C18.1671 9.14817 17.8612 9.17658 17.5728 9.27108C17.2844 9.36558 17.021 9.52375 16.802 9.73388C16.5831 9.944 16.4142 10.2007 16.3079 10.485C16.2016 10.7692 16.1606 11.0737 16.188 11.376V14H20.07L19.449 18.047H16.188V27.83C19.4812 27.3089 22.4803 25.6296 24.6457 23.0943C26.811 20.559 28.0005 17.3341 28 14Z" fill="white"/>
</svg>
