<svg width="42" height="42" viewBox="0 0 42 42" fill="none" xmlns="http://www.w3.org/2000/svg">
<path d="M21.001 42.001C32.599 42.001 42.001 32.599 42.001 21.001C42.001 9.403 32.599 0.000976562 21.001 0.000976562C9.403 0.000976562 0.000976562 9.403 0.000976562 21.001C0.000976562 32.599 9.403 42.001 21.001 42.001Z" fill="#00B900"/>
<path d="M35.007 19.737C35.007 13.453 28.723 8.36304 21.001 8.36304C13.279 8.36304 6.99396 13.453 6.99396 19.737C6.99396 25.354 11.979 30.058 18.719 30.97C19.175 31.075 19.807 31.286 19.948 31.67C20.0532 32.0836 20.0651 32.5153 19.983 32.934L19.772 34.128C19.702 34.479 19.491 35.497 21.001 34.9C22.511 34.303 29.075 30.126 32.024 26.721C33.9033 24.8755 34.9868 22.3684 35.043 19.735" fill="white"/>
<path d="M18.157 16.718H17.174C17.0995 16.718 17.028 16.7476 16.9753 16.8003C16.9226 16.853 16.893 16.9245 16.893 16.999V23.072C16.893 23.1465 16.9226 23.218 16.9753 23.2707C17.028 23.3234 17.0995 23.353 17.174 23.353H18.157C18.2315 23.353 18.303 23.3234 18.3557 23.2707C18.4084 23.218 18.438 23.1465 18.438 23.072V16.964C18.438 16.8895 18.4084 16.818 18.3557 16.7653C18.303 16.7126 18.2315 16.683 18.157 16.683" fill="#00B900"/>
<path d="M24.932 16.718H23.949C23.8745 16.718 23.803 16.7476 23.7503 16.8003C23.6976 16.853 23.668 16.9245 23.668 16.999V20.615L20.86 16.823H19.667C19.5925 16.823 19.521 16.8526 19.4683 16.9053C19.4156 16.958 19.386 17.0295 19.386 17.104V23.072C19.386 23.1465 19.4156 23.218 19.4683 23.2707C19.521 23.3234 19.5925 23.353 19.667 23.353H20.65C20.7245 23.353 20.796 23.3234 20.8487 23.2707C20.9014 23.218 20.931 23.1465 20.931 23.072V19.456L23.739 23.247L23.809 23.317H24.932C25.0065 23.317 25.078 23.2874 25.1307 23.2347C25.1834 23.182 25.213 23.1105 25.213 23.036V16.964C25.213 16.8895 25.1834 16.818 25.1307 16.7653C25.078 16.7126 25.0065 16.683 24.932 16.683" fill="#00B900"/>
<path d="M15.77 21.843H13.102V16.964C13.102 16.8895 13.0724 16.818 13.0197 16.7653C12.967 16.7126 12.8955 16.683 12.821 16.683H11.873C11.7985 16.683 11.727 16.7126 11.6743 16.7653C11.6216 16.818 11.592 16.8895 11.592 16.964V23.072C11.5942 23.137 11.619 23.1992 11.662 23.248L11.838 23.318H15.77C15.8445 23.318 15.916 23.2884 15.9687 23.2357C16.0214 23.183 16.051 23.1115 16.051 23.037V22.089C16.051 22.0145 16.0214 21.943 15.9687 21.8903C15.916 21.8376 15.8445 21.808 15.77 21.808" fill="#00B900"/>
<path d="M30.338 18.228C30.4125 18.228 30.484 18.1984 30.5367 18.1457C30.5893 18.093 30.6189 18.0215 30.6189 17.947V16.964C30.6189 16.8895 30.5893 16.818 30.5367 16.7653C30.484 16.7126 30.4125 16.683 30.338 16.683H26.407L26.2309 16.753C26.188 16.8018 26.1632 16.864 26.1609 16.929V23.072C26.1632 23.137 26.188 23.1992 26.2309 23.248L26.407 23.318H30.339C30.4135 23.318 30.485 23.2884 30.5377 23.2357C30.5903 23.183 30.6199 23.1115 30.6199 23.037V22.089C30.6199 22.0145 30.5903 21.943 30.5377 21.8903C30.485 21.8376 30.4135 21.808 30.339 21.808H27.67V20.79H30.338C30.3749 20.79 30.4114 20.7827 30.4455 20.7686C30.4796 20.7545 30.5106 20.7338 30.5367 20.7077C30.5627 20.6816 30.5834 20.6506 30.5976 20.6165C30.6117 20.5824 30.6189 20.5459 30.6189 20.509V19.526C30.6189 19.4891 30.6117 19.4525 30.5976 19.4184C30.5834 19.3844 30.5627 19.3534 30.5367 19.3273C30.5106 19.3012 30.4796 19.2805 30.4455 19.2664C30.4114 19.2523 30.3749 19.245 30.338 19.245H27.67V18.228H30.338Z" fill="#00B900"/>
</svg>
