<svg width="24" height="24" viewBox="0 0 24 24" fill="none" xmlns="http://www.w3.org/2000/svg">
<path d="M17.647 9.83498H16.301V6.76298C16.2843 5.70397 15.8519 4.69397 15.0971 3.95096C14.3423 3.20795 13.3256 2.7915 12.2665 2.7915C11.2073 2.7915 10.1906 3.20795 9.43584 3.95096C8.68104 4.69397 8.24865 5.70397 8.23197 6.76298V9.83498H6.88797C6.29387 9.83578 5.72432 10.0721 5.30422 10.4922C4.88413 10.9123 4.64777 11.4819 4.64697 12.076V19.697C4.64777 20.2911 4.88413 20.8606 5.30422 21.2807C5.72432 21.7008 6.29387 21.9372 6.88797 21.938H17.647C18.2411 21.9372 18.8106 21.7008 19.2307 21.2807C19.6508 20.8606 19.8872 20.2911 19.888 19.697V12.076C19.8872 11.4819 19.6508 10.9123 19.2307 10.4922C18.8106 10.0721 18.2411 9.83578 17.647 9.83498ZM9.72597 6.76298C9.75202 6.10678 10.031 5.48611 10.5045 5.03104C10.978 4.57596 11.6092 4.3218 12.266 4.3218C12.9227 4.3218 13.5539 4.57596 14.0274 5.03104C14.5009 5.48611 14.7799 6.10678 14.806 6.76298V9.83498H9.72597V6.76298ZM18.394 19.697C18.3937 19.895 18.3149 20.0849 18.1749 20.2249C18.0349 20.3649 17.845 20.4437 17.647 20.444H6.88797C6.68994 20.4437 6.50009 20.3649 6.36006 20.2249C6.22003 20.0849 6.14124 19.895 6.14097 19.697V12.076C6.14124 11.8779 6.22003 11.6881 6.36006 11.5481C6.50009 11.408 6.68994 11.3292 6.88797 11.329H17.647C17.845 11.3292 18.0349 11.408 18.1749 11.5481C18.3149 11.6881 18.3937 11.8779 18.394 12.076V19.697Z" fill="#CCCCCC"/>
<path d="M12.2669 13.496C11.9684 13.496 11.6779 13.5927 11.439 13.7715C11.2 13.9504 11.0253 14.2018 10.9411 14.4881C10.8569 14.7745 10.8677 15.0804 10.9719 15.3602C11.076 15.6399 11.2679 15.8784 11.5189 16.04V17.68C11.5189 17.8781 11.5976 18.0681 11.7377 18.2082C11.8778 18.3483 12.0678 18.427 12.2659 18.427C12.464 18.427 12.654 18.3483 12.7941 18.2082C12.9342 18.0681 13.0129 17.8781 13.0129 17.68V16.042C13.2647 15.8808 13.4574 15.6424 13.5622 15.3625C13.667 15.0826 13.6782 14.7762 13.5941 14.4894C13.5101 14.2025 13.3353 13.9507 13.096 13.7715C12.8567 13.5924 12.5658 13.4958 12.2669 13.496Z" fill="#CCCCCC"/>
</svg>
