<svg width="24" height="24" viewBox="0 0 24 24" fill="none" xmlns="http://www.w3.org/2000/svg">
<path d="M17.647 9.83498H16.301V6.76298C16.2843 5.70397 15.8519 4.69397 15.0971 3.95096C14.3423 3.20795 13.3256 2.7915 12.2665 2.7915C11.2073 2.7915 10.1906 3.20795 9.43584 3.95096C8.68104 4.69397 8.24865 5.70397 8.23197 6.76298V9.83498H6.88797C6.29387 9.83578 5.72432 10.0721 5.30422 10.4922C4.88413 10.9123 4.64777 11.4819 4.64697 12.076V19.697C4.64777 20.2911 4.88413 20.8606 5.30422 21.2807C5.72432 21.7008 6.29387 21.9372 6.88797 21.938H17.647C18.2411 21.9372 18.8106 21.7008 19.2307 21.2807C19.6508 20.8606 19.8872 20.2911 19.888 19.697V12.076C19.8872 11.4819 19.6508 10.9123 19.2307 10.4922C18.8106 10.0721 18.2411 9.83578 17.647 9.83498ZM9.72597 6.76298C9.75202 6.10678 10.031 5.48611 10.5045 5.03104C10.978 4.57596 11.6092 4.3218 12.266 4.3218C12.9227 4.3218 13.5539 4.57596 14.0274 5.03104C14.5009 5.48611 14.7799 6.10678 14.806 6.76298V9.83498H9.72597V6.76298ZM18.394 19.697C18.3937 19.895 18.3149 20.0849 18.1749 20.2249C18.0349 20.3649 17.845 20.4437 17.647 20.444H6.88797C6.68994 20.4437 6.50009 20.3649 6.36006 20.2249C6.22003 20.0849 6.14124 19.895 6.14097 19.697V12.076C6.14124 11.8779 6.22003 11.6881 6.36006 11.5481C6.50009 11.408 6.68994 11.3292 6.88797 11.329H17.647C17.845 11.3292 18.0349 11.408 18.1749 11.5481C18.3149 11.6881 18.3937 11.8779 18.394 12.076V19.697Z" fill="#CCCCCC"/>
<path d="M12.267 13.4961C11.9685 13.4961 11.6781 13.5928 11.4391 13.7716C11.2001 13.9505 11.0255 14.2019 10.9413 14.4883C10.8571 14.7746 10.8678 15.0806 10.972 15.3603C11.0761 15.64 11.268 15.8785 11.519 16.0401V17.6801C11.519 17.8782 11.5977 18.0682 11.7378 18.2083C11.8779 18.3484 12.0679 18.4271 12.266 18.4271C12.4641 18.4271 12.6541 18.3484 12.7942 18.2083C12.9343 18.0682 13.013 17.8782 13.013 17.6801V16.0421C13.2648 15.881 13.4575 15.6426 13.5623 15.3626C13.6671 15.0827 13.6783 14.7763 13.5943 14.4895C13.5102 14.2027 13.3354 13.9508 13.0961 13.7717C12.8568 13.5926 12.5659 13.4959 12.267 13.4961Z" fill="#CCCCCC"/>
</svg>
