<svg width="20" height="20" viewBox="0 0 20 20" fill="none" xmlns="http://www.w3.org/2000/svg">
<path d="M10.1 14.894C8.61261 14.8368 7.15974 14.4292 5.85973 13.7042C4.55972 12.9792 3.44933 11.9574 2.61901 10.722C2.54159 10.6183 2.49976 10.4924 2.49976 10.363C2.49976 10.2336 2.54159 10.1077 2.61901 10.004C3.41723 8.92182 4.3987 7.98773 5.51901 7.24398L7.23001 8.95698C7.04436 9.33163 6.93556 9.73964 6.91001 10.157C6.87961 10.5947 6.94034 11.0341 7.08836 11.4472C7.23639 11.8603 7.46849 12.2382 7.77001 12.557C8.06982 12.8738 8.43105 13.1262 8.83164 13.2989C9.23224 13.4715 9.6638 13.5607 10.1 13.561C10.169 13.561 10.238 13.561 10.307 13.554C10.7245 13.5276 11.1324 13.4182 11.507 13.232L12.725 14.45C11.8809 14.7434 10.9937 14.8935 10.1 14.894ZM15.046 13.234L13.146 11.334C13.3198 10.7918 13.3453 10.213 13.2197 9.6576C13.0942 9.10224 12.8222 8.59065 12.432 8.17598C12.1323 7.85818 11.7709 7.60486 11.3699 7.43154C10.969 7.25822 10.5368 7.16854 10.1 7.16798C10.031 7.16798 9.96201 7.16798 9.89301 7.17498C9.63337 7.1912 9.37674 7.23957 9.12901 7.31898L7.94201 6.13398C8.64422 5.9357 9.37033 5.83475 10.1 5.83398C11.5875 5.89126 13.0404 6.29908 14.3404 7.02425C15.6405 7.74942 16.7508 8.77141 17.581 10.007C17.6584 10.1107 17.7003 10.2366 17.7003 10.366C17.7003 10.4954 17.6584 10.6213 17.581 10.725C16.8684 11.6853 16.0136 12.5314 15.046 13.234ZM10.1 12.084C9.86388 12.083 9.63046 12.0337 9.41411 11.9391C9.19776 11.8445 9.00306 11.7067 8.84201 11.534C8.68094 11.3629 8.55708 11.1603 8.47825 10.939C8.39942 10.7176 8.36733 10.4824 8.38401 10.248C8.38401 10.205 8.39101 10.162 8.39701 10.119L10.341 12.068C10.298 12.074 10.255 12.078 10.212 12.081C10.169 12.084 10.138 12.084 10.1 12.084ZM11.779 9.96998L10.5 8.68598C10.8108 8.76026 11.095 8.91932 11.3208 9.14548C11.5466 9.37164 11.7052 9.65603 11.779 9.96698V9.96998Z" fill="#B5B5B5"/>
<path d="M3.71599 2.61371C3.4231 2.32082 2.94822 2.32082 2.65533 2.61371C2.36244 2.90661 2.36244 3.38148 2.65533 3.67437L16.3258 17.3449C16.6187 17.6378 17.0936 17.6378 17.3865 17.3449C17.6794 17.052 17.6794 16.5771 17.3865 16.2842L3.71599 2.61371Z" fill="#B5B5B5"/>
</svg>
