<svg width="190" height="41" viewBox="0 0 190 41" fill="none" xmlns="http://www.w3.org/2000/svg">
<path d="M8.081 33.375C7.954 33.248 8.017 33.121 8.208 33.121C8.30686 33.0996 8.40918 33.0999 8.50793 33.1218C8.60667 33.1437 8.69949 33.1868 8.78 33.248L16.09 39.731C16.4188 39.9617 16.7924 40.1205 17.1866 40.1972C17.5808 40.2738 17.9868 40.2666 18.378 40.176C19.141 39.985 19.395 39.476 18.95 39.095L13.55 34.264C13.423 34.137 13.486 34.01 13.677 34.01C13.7759 33.9886 13.8782 33.9889 13.9769 34.0108C14.0757 34.0327 14.1685 34.0758 14.249 34.137L19.649 38.968C19.9778 39.1987 20.3514 39.3575 20.7456 39.4342C21.1398 39.5108 21.5458 39.5036 21.937 39.413C22.7 39.222 22.954 38.713 22.509 38.332L17.109 33.501C16.982 33.374 17.045 33.247 17.236 33.247C17.3349 33.2256 17.4372 33.2259 17.5359 33.2478C17.6347 33.2697 17.7275 33.3128 17.808 33.374L23.208 38.205C23.5368 38.4357 23.9104 38.5945 24.3046 38.6712C24.6988 38.7478 25.1048 38.7406 25.496 38.65C26.259 38.459 26.513 37.95 26.068 37.569L20.668 32.738C20.541 32.611 20.604 32.484 20.795 32.484C20.8939 32.4626 20.9962 32.4629 21.0949 32.4848C21.1937 32.5067 21.2865 32.5498 21.367 32.611L25.117 35.98C25.4458 36.2107 25.8194 36.3695 26.2136 36.4462C26.6078 36.5228 27.0138 36.5156 27.405 36.425C28.168 36.234 28.422 35.725 27.977 35.344L20.54 28.544L18.632 26.828H18.568C17.3855 25.9113 15.9838 25.3197 14.502 25.112H14.375C12.7346 24.8027 11.0489 24.8244 9.417 25.176L3.25 26.446C0.0719995 27.209 -0.950001 29.179 1.025 30.895L2.233 31.976L4.458 34.01L7.702 36.936C8.05659 37.1896 8.46045 37.3659 8.88748 37.4536C9.3145 37.5413 9.75518 37.5384 10.181 37.445H10.499C11.389 37.254 11.643 36.682 11.135 36.237L8.081 33.375Z" fill="#FEB127"/>
<path d="M17.743 40.24C17.1508 40.2584 16.5693 40.0794 16.09 39.731L8.78005 33.184C8.70912 33.1279 8.62703 33.0875 8.53925 33.0656C8.45148 33.0437 8.36004 33.0408 8.27105 33.057L8.08005 33.184V33.311L11.132 36.049C11.2306 36.1197 11.307 36.2172 11.352 36.3299C11.397 36.4426 11.4088 36.5658 11.386 36.685C11.322 37.003 11.005 37.194 10.496 37.321H10.178C9.74221 37.4197 9.29045 37.4254 8.85226 37.3377C8.41408 37.25 7.99931 37.0709 7.63505 36.812L1.02505 30.959C0.666046 30.7219 0.38443 30.3848 0.215047 29.9894C0.0456636 29.5939 -0.00405374 29.1574 0.0720469 28.734C0.263047 27.971 1.47205 26.891 3.25005 26.446L9.35005 24.984C11.0025 24.6237 12.7109 24.602 14.372 24.92H14.499C15.9815 25.1274 17.3839 25.719 18.567 26.636L20.601 28.416L27.847 35.027C27.9404 35.0874 28.0141 35.1736 28.0592 35.2752C28.1043 35.3768 28.1189 35.4893 28.101 35.599C28.037 35.853 27.72 36.044 27.275 36.171C26.8838 36.2616 26.4779 36.2688 26.0837 36.1922C25.6894 36.1155 25.3158 35.9567 24.987 35.726L21.237 32.357C21.1661 32.3009 21.084 32.2605 20.9963 32.2386C20.9085 32.2167 20.817 32.2138 20.728 32.23L20.537 32.357V32.484L25.937 37.315C26.0304 37.3754 26.1041 37.4616 26.1492 37.5632C26.1943 37.6648 26.2089 37.7773 26.191 37.887C26.127 38.141 25.81 38.332 25.365 38.459C24.9735 38.5457 24.5684 38.5509 24.1748 38.4743C23.7812 38.3978 23.4075 38.2411 23.077 38.014L17.677 33.183C17.6061 33.1269 17.524 33.0865 17.4363 33.0646C17.3485 33.0427 17.257 33.0398 17.168 33.056L16.977 33.183V33.31L22.377 38.141C22.4704 38.2014 22.5441 38.2876 22.5892 38.3892C22.6343 38.4908 22.6489 38.6033 22.631 38.713C22.567 38.967 22.25 39.158 21.805 39.285C21.4138 39.3756 21.0079 39.3828 20.6137 39.3062C20.2194 39.2295 19.8458 39.0707 19.517 38.84L14.183 34.074C14.1121 34.0179 14.03 33.9775 13.9423 33.9556C13.8545 33.9337 13.763 33.9308 13.674 33.947L13.483 34.074V34.201L18.883 39.032C18.9764 39.0924 19.0501 39.1786 19.0952 39.2802C19.1403 39.3818 19.1549 39.4943 19.137 39.604C19.073 39.858 18.756 40.049 18.311 40.176L17.743 40.24ZM8.39905 33.057L8.84405 33.184L16.09 39.667C16.4093 39.8923 16.7722 40.0484 17.1554 40.125C17.5387 40.2016 17.9337 40.1972 18.315 40.112C18.76 39.985 19.015 39.794 19.078 39.603C19.0976 39.5088 19.09 39.411 19.0562 39.3209C19.0224 39.2308 18.9637 39.1521 18.887 39.094L13.487 34.263C13.4596 34.2403 13.4391 34.2104 13.4278 34.1766C13.4165 34.1429 13.4149 34.1066 13.423 34.072L13.614 33.881C13.7131 33.8634 13.8146 33.8656 13.9127 33.8874C14.0109 33.9092 14.1038 33.9502 14.186 34.008L19.586 38.839C19.9053 39.0643 20.2682 39.2204 20.6514 39.297C21.0347 39.3736 21.4297 39.3692 21.811 39.284C22.256 39.157 22.511 38.966 22.574 38.775C22.5935 38.6809 22.5859 38.5833 22.5521 38.4934C22.5183 38.4034 22.4597 38.325 22.383 38.267L16.983 33.436C16.9553 33.4143 16.934 33.3854 16.9217 33.3524C16.9093 33.3194 16.9063 33.2836 16.913 33.249L17.104 33.058C17.2031 33.0404 17.3046 33.0426 17.4027 33.0644C17.5009 33.0862 17.5938 33.1272 17.676 33.185L23.076 38.016C23.3953 38.2413 23.7582 38.3974 24.1414 38.474C24.5247 38.5506 24.9197 38.5462 25.301 38.461C25.746 38.334 26.001 38.143 26.064 37.952C26.0836 37.8578 26.076 37.76 26.0422 37.6699C26.0084 37.5798 25.9497 37.5011 25.873 37.443L20.473 32.612C20.4456 32.5893 20.4251 32.5594 20.4138 32.5256C20.4025 32.4919 20.4009 32.4556 20.409 32.421L20.6 32.23C20.6991 32.2124 20.8006 32.2146 20.8987 32.2364C20.9969 32.2582 21.0898 32.2992 21.172 32.357L24.922 35.726C25.2413 35.9513 25.6042 36.1074 25.9874 36.184C26.3707 36.2606 26.7657 36.2562 27.147 36.171C27.592 36.044 27.847 35.853 27.91 35.662C27.9296 35.5678 27.922 35.47 27.8882 35.3799C27.8544 35.2898 27.7957 35.2111 27.719 35.153L18.502 26.763C17.3398 25.8542 15.9615 25.2629 14.502 25.047H14.375C12.7348 24.7359 11.0487 24.7577 9.41705 25.111L3.25105 26.511C1.47105 26.892 0.327047 27.719 0.0730469 28.736C-0.180953 29.753 0.264047 30.198 1.02605 30.897L7.70005 36.872C8.05951 37.1147 8.46569 37.2796 8.89257 37.3562C9.31945 37.4329 9.75763 37.4195 10.179 37.317H10.497C10.942 37.19 11.26 36.999 11.323 36.745C11.3409 36.6353 11.3263 36.5228 11.2812 36.4212C11.2361 36.3196 11.1624 36.2334 11.069 36.173L8.01305 33.438C7.98564 33.4153 7.96513 33.3854 7.95382 33.3516C7.94251 33.3179 7.94086 33.2816 7.94905 33.247L8.14005 33.056L8.39905 33.057Z" fill="white"/>
<path d="M37.066 26.51C36.9855 26.4488 36.8927 26.4057 36.7939 26.3838C36.6952 26.3619 36.5929 26.3616 36.494 26.383C36.303 26.447 36.24 26.574 36.367 26.637L43.677 33.184C44.122 33.629 43.931 34.074 43.105 34.265C42.7138 34.3556 42.3078 34.3628 41.9136 34.2862C41.5194 34.2095 41.1458 34.0507 40.817 33.82L35.417 28.989C35.3365 28.9278 35.2437 28.8847 35.1449 28.8628C35.0462 28.8409 34.9439 28.8406 34.845 28.862C34.654 28.926 34.591 29.053 34.718 29.116L40.118 33.947C40.563 34.392 40.372 34.837 39.546 35.028C39.1548 35.1186 38.7488 35.1258 38.3546 35.0492C37.9604 34.9725 37.5867 34.8137 37.258 34.583L31.858 29.752C31.7775 29.6908 31.6847 29.6477 31.5859 29.6258C31.4872 29.6039 31.3849 29.6036 31.286 29.625C31.095 29.689 31.032 29.816 31.159 29.879L36.559 34.71C37.004 35.155 36.813 35.6 35.987 35.791C35.5958 35.8816 35.1898 35.8888 34.7956 35.8122C34.4014 35.7355 34.0278 35.5767 33.699 35.346L28.299 30.515C28.2185 30.4538 28.1257 30.4107 28.0269 30.3888C27.9282 30.3669 27.8259 30.3666 27.727 30.388C27.536 30.452 27.473 30.579 27.6 30.642L31.35 34.011C31.795 34.456 31.604 34.901 30.778 35.092C30.3868 35.1826 29.9808 35.1898 29.5866 35.1132C29.1924 35.0365 28.8188 34.8777 28.49 34.647L21.244 28.354L19.337 26.638H19.273C18.8605 26.3775 18.56 25.9724 18.4306 25.5021C18.3011 25.0317 18.3519 24.5299 18.573 24.095H18.637C19.3552 23.1157 20.4266 22.4547 21.624 22.252L27.663 20.726C30.841 19.963 34.973 20.79 36.88 22.506L38.083 23.589L40.308 25.559L43.55 28.483C44.059 28.928 43.804 29.5 42.914 29.691H42.6C42.1742 29.7844 41.7335 29.7873 41.3065 29.6996C40.8795 29.6119 40.4756 29.4356 40.121 29.182L37.066 26.51Z" fill="#FEB127"/>
<path d="M35.413 36.108C34.8208 36.1265 34.2393 35.9474 33.76 35.599L28.36 30.768C28.2891 30.7119 28.207 30.6715 28.1193 30.6496C28.0315 30.6277 27.94 30.6248 27.851 30.641L27.66 30.768V30.895L31.41 34.264C31.5034 34.3244 31.5771 34.4106 31.6222 34.5122C31.6673 34.6138 31.6819 34.7263 31.664 34.836C31.6 35.09 31.283 35.281 30.838 35.408C30.4468 35.4986 30.0409 35.5058 29.6467 35.4292C29.2524 35.3525 28.8788 35.1937 28.55 34.963L21.177 28.352L19.207 26.572C18.8123 26.2958 18.5222 25.8945 18.3838 25.4331C18.2453 24.9716 18.2666 24.4769 18.444 24.029H18.508C18.8684 23.5352 19.3235 23.1181 19.8468 22.8022C20.3702 22.4862 20.9512 22.2778 21.556 22.189L27.656 20.727C30.834 19.964 34.966 20.791 36.936 22.507L43.61 28.482C43.7086 28.5527 43.785 28.6502 43.83 28.7629C43.875 28.8756 43.8868 28.9988 43.864 29.118C43.8 29.436 43.483 29.627 42.974 29.754H42.593C42.1572 29.8527 41.7054 29.8584 41.2673 29.7707C40.8291 29.683 40.4143 29.5039 40.05 29.245L36.999 26.512C36.9281 26.4559 36.846 26.4155 36.7583 26.3936C36.6705 26.3717 36.579 26.3688 36.49 26.385L36.299 26.512V26.639L43.676 33.189C43.7694 33.2494 43.8431 33.3356 43.8882 33.4372C43.9333 33.5388 43.9479 33.6513 43.93 33.761C43.866 34.015 43.549 34.206 43.104 34.333C42.7128 34.4236 42.3069 34.4308 41.9127 34.3542C41.5184 34.2775 41.1448 34.1187 40.816 33.888L35.416 29.057C35.2693 28.9503 35.0868 28.9048 34.907 28.93L34.716 29.057V29.184L40.116 34.015C40.2094 34.0754 40.2831 34.1616 40.3282 34.2632C40.3733 34.3648 40.3879 34.4773 40.37 34.587C40.306 34.841 39.989 35.032 39.544 35.159C39.1525 35.2457 38.7474 35.2509 38.3538 35.1744C37.9602 35.0978 37.5865 34.9411 37.256 34.714L31.856 29.883C31.7851 29.8269 31.703 29.7865 31.6152 29.7646C31.5275 29.7427 31.436 29.7398 31.347 29.756L31.156 29.883V30.01L36.556 34.841C36.6494 34.9014 36.7231 34.9876 36.7682 35.0892C36.8133 35.1908 36.8279 35.3033 36.81 35.413C36.746 35.667 36.429 35.858 35.984 35.985L35.413 36.108ZM27.913 30.514L28.358 30.641L33.758 35.472C34.0773 35.6974 34.4402 35.8534 34.8234 35.93C35.2067 36.0066 35.6017 36.0022 35.983 35.917C36.428 35.79 36.683 35.599 36.746 35.408C36.7654 35.3139 36.7577 35.2163 36.7239 35.1264C36.6901 35.0365 36.6316 34.9581 36.555 34.9L31.155 30.069C31.1276 30.0463 31.1071 30.0164 31.0958 29.9826C31.0845 29.9489 31.0829 29.9127 31.091 29.878L31.282 29.687C31.3811 29.6695 31.4826 29.6716 31.5807 29.6934C31.6789 29.7152 31.7718 29.7562 31.854 29.814L37.32 34.708C37.6386 34.9328 38.0007 35.0886 38.3829 35.1654C38.7652 35.2422 39.1594 35.2384 39.54 35.154C39.985 35.027 40.24 34.836 40.303 34.645C40.3224 34.5509 40.3147 34.4533 40.2809 34.3634C40.2471 34.2735 40.1886 34.1951 40.112 34.137L34.712 29.306C34.6846 29.2833 34.6641 29.2534 34.6528 29.2196C34.6415 29.1859 34.6399 29.1497 34.648 29.115L34.839 28.924C34.9379 28.9026 35.0402 28.9029 35.139 28.9248C35.2377 28.9467 35.3305 28.9898 35.411 29.051L40.811 33.882C41.1303 34.1074 41.4932 34.2634 41.8764 34.34C42.2597 34.4166 42.6547 34.4122 43.036 34.327C43.481 34.2 43.736 34.009 43.799 33.818C43.8187 33.7238 43.8112 33.6259 43.7774 33.5358C43.7436 33.4457 43.6848 33.367 43.608 33.309L36.298 26.698C36.2706 26.6753 36.2501 26.6454 36.2388 26.6116C36.2275 26.5779 36.2259 26.5417 36.234 26.507L36.425 26.316C36.5241 26.2984 36.6256 26.3006 36.7237 26.3224C36.8219 26.3442 36.9148 26.3852 36.997 26.443L40.048 29.176C40.4075 29.4187 40.8137 29.5836 41.2406 29.6602C41.6674 29.7369 42.1056 29.7235 42.527 29.621H42.845C43.29 29.494 43.608 29.303 43.671 29.049C43.6889 28.9393 43.6743 28.8268 43.6292 28.7252C43.5841 28.6236 43.5104 28.5374 43.417 28.477L36.87 22.502C34.968 20.789 30.84 20.026 27.658 20.789L21.558 22.251C20.3755 22.4518 19.3104 23.0865 18.571 24.031H18.507C18.2986 24.458 18.2548 24.9468 18.3839 25.4041C18.5131 25.8614 18.8061 26.2551 19.207 26.51L21.307 28.353L28.553 34.836C28.8723 35.0614 29.2352 35.2174 29.6185 35.294C30.0017 35.3706 30.3967 35.3662 30.778 35.281C31.223 35.154 31.478 34.963 31.541 34.773C31.5606 34.6788 31.553 34.581 31.5192 34.4909C31.4854 34.4008 31.4267 34.3221 31.35 34.264L27.6 30.895C27.5726 30.8723 27.5521 30.8424 27.5408 30.8086C27.5295 30.7749 27.5279 30.7387 27.536 30.704L27.727 30.513L27.913 30.514Z" fill="white"/>
<path d="M16.9801 33.819V11.44L33.2521 7.44V29.814L16.9801 33.755" fill="white"/>
<path d="M16.9801 34.646C16.744 34.646 16.5177 34.5522 16.3508 34.3853C16.1839 34.2184 16.0901 33.992 16.0901 33.756V11.445C16.0958 11.2579 16.1603 11.0774 16.2745 10.9291C16.3887 10.7808 16.5467 10.6723 16.7261 10.619L33.0621 6.61899C33.1886 6.59103 33.3197 6.59103 33.4462 6.61899C33.5727 6.64694 33.6916 6.70218 33.7945 6.78084C33.8974 6.8595 33.982 6.95968 34.0422 7.0744C34.1024 7.18911 34.1368 7.31559 34.1431 7.44499V29.815C34.1335 30.0105 34.0597 30.1974 33.9331 30.3467C33.8066 30.496 33.6344 30.5994 33.4431 30.641L17.4251 34.518L16.9801 34.646ZM17.8701 12.081V32.675L32.4261 29.115V8.52099L17.8701 12.081Z" fill="#4CA223"/>
<path d="M23.1461 32.039L27.6591 30.958V27.208L23.1461 28.289V32.039Z" fill="#4CA223"/>
<path d="M23.1461 32.929C22.9101 32.929 22.6837 32.8352 22.5168 32.6683C22.3499 32.5014 22.2561 32.275 22.2561 32.039V28.289C22.2618 28.1019 22.3263 27.9214 22.4405 27.7731C22.5547 27.6248 22.7127 27.5163 22.8921 27.463L27.4051 26.382C27.5316 26.354 27.6627 26.354 27.7892 26.382C27.9157 26.4099 28.0346 26.4652 28.1375 26.5438C28.2405 26.6225 28.325 26.7227 28.3852 26.8374C28.4454 26.9521 28.4798 27.0786 28.4861 27.208V30.958C28.4804 31.1451 28.4159 31.3256 28.3017 31.4739C28.1875 31.6221 28.0295 31.7307 27.8501 31.784L23.3371 32.865L23.1461 32.929ZM24.0361 28.988V30.958L26.7691 30.258V28.288L24.0361 28.988Z" fill="#4CA223"/>
<path d="M28.1671 23.649C27.9311 23.649 27.7047 23.5552 27.5378 23.3883C27.3709 23.2214 27.2771 22.995 27.2771 22.759V20.725C27.2407 20.5929 27.2353 20.4541 27.2613 20.3195C27.2873 20.185 27.3441 20.0582 27.4271 19.9492C27.5101 19.8402 27.6172 19.7518 27.74 19.691C27.8629 19.6301 27.9981 19.5985 28.1351 19.5985C28.2722 19.5985 28.4074 19.6301 28.5302 19.691C28.653 19.7518 28.7601 19.8402 28.8431 19.9492C28.9262 20.0582 28.9829 20.185 29.0089 20.3195C29.035 20.4541 29.0295 20.5929 28.9931 20.725V22.759C28.9937 22.9843 28.9088 23.2015 28.7555 23.3667C28.6022 23.5319 28.3919 23.6328 28.1671 23.649Z" fill="#4CA223"/>
<path d="M22.701 24.984C22.465 24.984 22.2386 24.8902 22.0717 24.7233C21.9048 24.5564 21.811 24.33 21.811 24.094V22.06C21.811 21.8239 21.9048 21.5976 22.0717 21.4307C22.2386 21.2637 22.465 21.17 22.701 21.17C22.9258 21.1862 23.1361 21.2871 23.2894 21.4522C23.4427 21.6174 23.5276 21.8346 23.527 22.06V24.094C23.5276 24.3193 23.4427 24.5365 23.2894 24.7017C23.1361 24.8669 22.9258 24.9678 22.701 24.984Z" fill="#4CA223"/>
<path d="M28.1671 17.102C27.9418 17.1026 27.7246 17.0176 27.5594 16.8643C27.3942 16.711 27.2933 16.5008 27.2771 16.276V14.242C27.2407 14.1099 27.2353 13.9711 27.2613 13.8365C27.2873 13.702 27.3441 13.5752 27.4271 13.4662C27.5101 13.3572 27.6172 13.2688 27.74 13.208C27.8629 13.1471 27.9981 13.1155 28.1351 13.1155C28.2722 13.1155 28.4074 13.1471 28.5302 13.208C28.653 13.2688 28.7601 13.3572 28.8431 13.4662C28.9262 13.5752 28.9829 13.702 29.0089 13.8365C29.035 13.9711 29.0295 14.1099 28.9931 14.242V16.276C28.9782 16.4901 28.8864 16.6917 28.7346 16.8435C28.5828 16.9953 28.3813 17.0871 28.1671 17.102Z" fill="#4CA223"/>
<path d="M22.701 18.436C22.465 18.436 22.2386 18.3422 22.0717 18.1753C21.9048 18.0084 21.811 17.7821 21.811 17.546V15.512C21.8628 15.3242 21.9748 15.1585 22.1298 15.0405C22.2848 14.9225 22.4742 14.8585 22.669 14.8585C22.8639 14.8585 23.0533 14.9225 23.2083 15.0405C23.3633 15.1585 23.4753 15.3242 23.527 15.512V17.546C23.5276 17.7714 23.4427 17.9886 23.2894 18.1537C23.1361 18.3189 22.9258 18.4198 22.701 18.436Z" fill="#4CA223"/>
<path d="M10.7511 5.91498V28.289L16.9801 33.819V11.445L10.7511 5.91498Z" fill="white"/>
<path d="M16.9801 34.645C16.773 34.6498 16.5707 34.5823 16.4081 34.454L10.1791 28.924C10.0852 28.8455 10.0085 28.7486 9.95381 28.6391C9.89909 28.5297 9.86753 28.4102 9.86108 28.288V5.91499C9.86944 5.74949 9.92384 5.5896 10.0182 5.45335C10.1125 5.31709 10.243 5.20987 10.3949 5.14376C10.5469 5.07766 10.7143 5.05529 10.8783 5.07918C11.0422 5.10307 11.1963 5.17227 11.3231 5.27899L17.5521 10.809C17.646 10.8875 17.7226 10.9844 17.7774 11.0939C17.8321 11.2033 17.8636 11.3228 17.8701 11.445V33.819C17.8743 33.9912 17.8284 34.1608 17.738 34.3074C17.6477 34.4541 17.5167 34.5713 17.3611 34.645H16.9801ZM11.5801 27.907L16.0931 31.848V11.826L11.5801 7.82599V27.907Z" fill="#4CA223"/>
<path d="M10.75 5.91L16.979 11.44L33.251 7.44L27.022 1.91L10.75 5.91Z" fill="white"/>
<path d="M16.9841 12.271C16.777 12.2758 16.5747 12.2083 16.4121 12.08L10.1191 6.55C9.99876 6.44192 9.91019 6.30311 9.86284 6.14848C9.8155 5.99385 9.81119 5.82925 9.85036 5.67235C9.88953 5.51545 9.97071 5.37219 10.0852 5.25796C10.1997 5.14373 10.3431 5.06285 10.5001 5.024L26.8361 1.024C26.9694 0.995249 27.1075 0.99752 27.2398 1.03064C27.3721 1.06375 27.495 1.12683 27.5991 1.215L33.8281 6.745C33.9484 6.85307 34.0369 6.99188 34.0843 7.14651C34.1316 7.30114 34.1359 7.46575 34.0968 7.62265C34.0576 7.77955 33.9764 7.92281 33.8619 8.03704C33.7475 8.15127 33.604 8.23215 33.4471 8.271L17.1751 12.271H16.9841ZM12.5301 6.296L17.1711 10.432L31.4711 7L26.7711 2.868L12.5301 6.296Z" fill="#4CA223"/>
<path d="M14.818 27.907C14.8623 27.5592 14.8159 27.2059 14.6834 26.8814C14.551 26.5568 14.3368 26.272 14.0619 26.0546C13.7869 25.8371 13.4604 25.6945 13.114 25.6404C12.7676 25.5863 12.4132 25.6227 12.085 25.746C12.1241 25.325 12.0311 24.9023 11.8188 24.5366C11.6065 24.171 11.2855 23.8806 10.9006 23.7058C10.5156 23.531 10.0857 23.4805 9.67067 23.5614C9.25567 23.6423 8.87619 23.8504 8.58499 24.157C8.15988 23.9098 7.65963 23.8251 7.17682 23.9183C6.69402 24.0116 6.26135 24.2767 5.95891 24.6644C5.65647 25.0521 5.50472 25.5363 5.53176 26.0273C5.5588 26.5183 5.7628 26.9828 6.10599 27.335C5.82288 27.6038 5.62309 27.9484 5.53048 28.3276C5.43787 28.7068 5.45635 29.1047 5.58371 29.4737C5.71107 29.8427 5.94194 30.1673 6.24876 30.4087C6.55557 30.6501 6.92536 30.7981 7.31399 30.835H7.75899C7.77345 31.2343 7.90519 31.6205 8.13776 31.9454C8.37034 32.2703 8.69345 32.5195 9.06678 32.6619C9.4401 32.8043 9.8471 32.8335 10.237 32.7461C10.6268 32.6586 10.9823 32.4582 11.259 32.17C11.6467 32.5493 12.1693 32.7589 12.7116 32.7529C13.254 32.7469 13.7717 32.5257 14.151 32.138C14.5303 31.7502 14.7399 31.2277 14.7339 30.6854C14.7279 30.143 14.5067 29.6253 14.119 29.246C14.5152 28.9059 14.7655 28.4265 14.818 27.907Z" fill="#4CA223"/>
<path d="M67.322 11.126C66.8003 11.1266 66.2895 11.2765 65.8502 11.5581C65.411 11.8397 65.0615 12.2411 64.843 12.715L62.491 17.864L60.457 12.842C60.2481 12.3561 59.9026 11.9414 59.4626 11.648C59.0226 11.3545 58.5069 11.1951 57.978 11.189C57.5274 11.1886 57.084 11.3022 56.6892 11.5193C56.2943 11.7364 55.9608 12.0499 55.7197 12.4306C55.4787 12.8113 55.3379 13.2469 55.3105 13.6967C55.2831 14.1464 55.37 14.5958 55.563 15.003L59.563 23.838L57.338 28.538C57.1751 28.9433 57.1116 29.3818 57.153 29.8166C57.1944 30.2515 57.3394 30.6701 57.576 31.0374C57.8125 31.4047 58.1336 31.7099 58.5124 31.9275C58.8912 32.1451 59.3166 32.2687 59.753 32.288C60.1672 32.2805 60.571 32.1576 60.919 31.933C61.2671 31.7085 61.5455 31.3912 61.723 31.017L69.478 14.49C69.6502 14.129 69.7274 13.73 69.7024 13.3308C69.6774 12.9316 69.551 12.5454 69.3352 12.2086C69.1194 11.8719 68.8213 11.5957 68.469 11.4063C68.1167 11.2169 67.722 11.1204 67.322 11.126Z" fill="#4CA223"/>
<path d="M88.0431 11.634C86.9683 11.1326 85.797 10.8722 84.6111 10.871C83.0317 10.8242 81.4635 11.1507 80.0341 11.824C78.8241 12.4218 77.8261 13.3755 77.1741 14.557C76.5289 15.7461 76.2007 17.0813 76.2211 18.434C76.1985 19.807 76.5265 21.1631 77.1741 22.374C77.8355 23.5483 78.831 24.4996 80.0341 25.107C81.454 25.8142 83.0253 26.1634 84.6111 26.124C85.9842 26.1466 87.3537 25.9756 88.6791 25.616L90.5861 24.916C90.8702 24.7919 91.1119 24.5873 91.2812 24.3276C91.4506 24.0678 91.5402 23.7641 91.5391 23.454C91.544 23.1686 91.4801 22.8862 91.353 22.6306C91.2258 22.375 91.039 22.1538 90.8084 21.9856C90.5778 21.8173 90.3102 21.707 90.028 21.6639C89.7458 21.6208 89.4574 21.6462 89.1871 21.738C88.0607 22.1312 86.8798 22.3458 85.6871 22.374C84.8003 22.3924 83.9311 22.1248 83.2081 21.611C82.6139 21.215 82.1671 20.6339 81.9371 19.958H88.9931C89.3874 19.9542 89.7762 19.8651 90.1328 19.6968C90.4894 19.5285 90.8054 19.2851 91.0591 18.9832C91.3127 18.6813 91.498 18.328 91.6023 17.9477C91.7066 17.5674 91.7273 17.1691 91.6631 16.78C91.519 15.8665 91.2179 14.9848 90.7731 14.174C90.147 13.0659 89.1934 12.1786 88.0431 11.634ZM81.7501 16.974C81.771 16.3368 82.0193 15.7281 82.4501 15.258C82.6826 15.0036 82.9682 14.8033 83.2867 14.6715C83.6052 14.5396 83.9487 14.4794 84.2931 14.495C84.624 14.4624 84.9579 14.5089 85.2674 14.6306C85.5768 14.7523 85.853 14.9457 86.0731 15.195C86.4763 15.7016 86.7 16.3276 86.7091 16.975L81.7501 16.974Z" fill="#4CA223"/>
<path d="M109.21 17.801C108.351 17.2575 107.434 16.8098 106.477 16.466C105.977 16.3054 105.505 16.0693 105.077 15.766C105.006 15.7135 104.947 15.6468 104.903 15.5702C104.86 15.4936 104.832 15.4087 104.823 15.321C104.839 15.125 104.93 14.9426 105.077 14.812C105.373 14.6046 105.735 14.5141 106.094 14.558L107.429 14.749L107.874 14.876C108.349 15.0313 108.861 15.0313 109.336 14.876C109.671 14.7676 109.963 14.555 110.169 14.2691C110.374 13.9833 110.484 13.6392 110.48 13.287C110.487 12.9099 110.373 12.5405 110.156 12.2321C109.939 11.9236 109.629 11.6922 109.272 11.571L108.255 11.253L106.475 10.935H105.332C104.197 10.8983 103.068 11.1156 102.027 11.571C101.181 11.9367 100.454 12.531 99.9271 13.287C99.4832 13.9213 99.2394 14.674 99.2271 15.448C99.1907 16.4578 99.5565 17.4407 100.244 18.181C100.946 18.9149 101.789 19.4987 102.723 19.897L104.503 20.723L105.393 21.295C105.513 21.4124 105.582 21.5723 105.584 21.74C105.584 21.931 105.584 22.503 103.931 22.503C103.256 22.5048 102.587 22.3754 101.961 22.122H101.897C101.625 22.0059 101.329 21.9593 101.034 21.9866C100.74 22.0138 100.457 22.114 100.211 22.278C99.9645 22.4421 99.7632 22.6649 99.6248 22.9262C99.4865 23.1876 99.4154 23.4793 99.4181 23.775C99.4252 24.1421 99.5458 24.498 99.7631 24.7939C99.9804 25.0899 100.284 25.3113 100.632 25.428L102.285 25.873C103.223 26.0869 104.183 26.1936 105.145 26.191C106.729 26.2839 108.298 25.8357 109.594 24.92C110.085 24.5093 110.478 23.9931 110.742 23.4098C111.006 22.8265 111.135 22.1912 111.12 21.551C111.14 20.8469 110.987 20.1486 110.675 19.517C110.341 18.8306 109.838 18.2401 109.213 17.801H109.21Z" fill="#4CA223"/>
<path d="M142.581 11.574C141.666 11.0759 140.634 10.8341 139.593 10.874C138.513 10.8467 137.443 11.0872 136.478 11.574C135.599 12.0563 134.805 12.6788 134.126 13.417C133.94 13.0479 133.704 12.7058 133.426 12.4C133.084 12.0127 132.674 11.6899 132.218 11.447C131.795 11.2404 131.346 11.0908 130.883 11.002L129.421 10.875C128.457 10.8613 127.502 11.0564 126.621 11.447C125.921 11.7863 125.28 12.2342 124.72 12.774C124.72 12.3356 124.546 11.9152 124.236 11.6052C123.926 11.2952 123.505 11.121 123.067 11.121H121.923C121.198 11.121 120.503 11.4089 119.991 11.9215C119.478 12.434 119.19 13.1292 119.19 13.854V23.134C119.19 23.8588 119.478 24.554 119.991 25.0665C120.503 25.5791 121.198 25.867 121.923 25.867H122.05C122.409 25.867 122.764 25.7963 123.096 25.659C123.428 25.5216 123.729 25.3203 123.983 25.0665C124.236 24.8127 124.438 24.5115 124.575 24.1799C124.712 23.8483 124.783 23.4929 124.783 23.134V17.291L125.292 16.655L125.992 15.892L126.692 15.447C126.971 15.319 127.275 15.2538 127.582 15.256C127.851 15.2215 128.125 15.2627 128.372 15.3751C128.62 15.4874 128.831 15.6664 128.982 15.892C129.31 16.5416 129.463 17.2653 129.427 17.992V23.014C129.427 23.7566 129.722 24.4688 130.247 24.9939C130.772 25.519 131.484 25.814 132.227 25.814H132.291C133.016 25.814 133.711 25.5261 134.224 25.0135C134.736 24.501 135.024 23.8058 135.024 23.081V17.291C135.399 16.7636 135.825 16.274 136.295 15.829C136.498 15.6368 136.738 15.4872 137 15.3889C137.262 15.2907 137.541 15.2459 137.821 15.257C138.079 15.2412 138.337 15.2912 138.571 15.4025C138.804 15.5137 139.006 15.6825 139.156 15.893C139.499 16.5372 139.653 17.2651 139.601 17.993V23.142C139.601 23.8668 139.889 24.562 140.402 25.0745C140.914 25.5871 141.609 25.875 142.334 25.875H142.461C143.186 25.875 143.881 25.5871 144.394 25.0745C144.906 24.562 145.194 23.8668 145.194 23.142V16.91C145.223 15.8019 145.028 14.6994 144.622 13.668C144.204 12.756 143.486 12.0148 142.588 11.568L142.581 11.574Z" fill="#4CA223"/>
<path d="M166.418 22.377C166.385 22.3865 166.35 22.3891 166.315 22.3845C166.281 22.38 166.247 22.3684 166.218 22.3505C166.188 22.3326 166.162 22.3087 166.142 22.2804C166.122 22.2522 166.107 22.22 166.1 22.186C165.997 21.8354 165.954 21.4699 165.973 21.105V15.575C165.998 14.9018 165.862 14.2324 165.574 13.6232C165.286 13.0141 164.856 12.4831 164.32 12.075C162.892 11.1352 161.195 10.6889 159.489 10.804C158.68 10.798 157.872 10.8619 157.074 10.995C156.271 11.128 155.483 11.3411 154.722 11.631L153.387 12.267C153.119 12.4219 152.896 12.6442 152.739 12.9118C152.583 13.1794 152.5 13.4832 152.497 13.793C152.506 14.095 152.591 14.3898 152.745 14.6497C152.899 14.9096 153.116 15.126 153.377 15.2787C153.638 15.4313 153.933 15.5151 154.235 15.5222C154.537 15.5292 154.836 15.4593 155.103 15.319L155.421 15.128C156.326 14.6642 157.328 14.4241 158.345 14.428C159.171 14.428 159.745 14.619 159.934 14.937C160.189 15.3351 160.321 15.7993 160.315 16.272L159.934 16.463L159.171 16.717L157.582 17.226C156.561 17.5374 155.563 17.9197 154.595 18.37C153.877 18.7105 153.247 19.2106 152.752 19.832C152.257 20.5131 152.01 21.3431 152.052 22.184C152.047 22.7981 152.177 23.4057 152.433 23.964C152.755 24.5925 153.267 25.104 153.895 25.426C154.701 25.8341 155.598 26.0309 156.501 25.998C157.412 26.0267 158.319 25.8755 159.171 25.553C159.733 25.3177 160.266 25.0191 160.76 24.663C160.917 24.9766 161.133 25.257 161.396 25.489C161.949 25.8845 162.627 26.0654 163.303 25.998C164.074 26.0157 164.843 25.9303 165.591 25.744L166.735 25.363C167.048 25.2475 167.319 25.04 167.512 24.7676C167.705 24.4952 167.811 24.1708 167.816 23.837C167.802 23.4643 167.651 23.1098 167.393 22.8405C167.135 22.5711 166.788 22.4055 166.416 22.375L166.418 22.377ZM157.518 21.677C157.515 21.4139 157.578 21.1542 157.7 20.9212C157.822 20.6882 158 20.4892 158.218 20.342C158.919 19.887 159.665 19.5037 160.443 19.198V21.998L159.553 22.57C159.306 22.7363 159.013 22.8198 158.716 22.8083C158.419 22.7968 158.133 22.6909 157.9 22.506C157.783 22.4017 157.689 22.2746 157.624 22.1325C157.558 21.9904 157.523 21.8364 157.519 21.68L157.518 21.677Z" fill="#4CA223"/>
<path d="M184.536 10.874C183.653 10.8468 182.774 11.0021 181.954 11.3302C181.133 11.6584 180.39 12.1523 179.769 12.781C179.769 12.5639 179.726 12.349 179.643 12.1484C179.56 11.9479 179.438 11.7657 179.285 11.6122C179.131 11.4587 178.949 11.3369 178.749 11.2539C178.548 11.1708 178.333 11.128 178.116 11.128H176.972C176.247 11.128 175.552 11.416 175.039 11.9285C174.527 12.441 174.239 13.1362 174.239 13.861V23.141C174.239 23.8659 174.527 24.561 175.039 25.0735C175.552 25.5861 176.247 25.874 176.972 25.874H177.099C177.824 25.874 178.519 25.5861 179.032 25.0735C179.544 24.561 179.832 23.8659 179.832 23.141V17.292L180.277 16.656L180.849 15.956L181.612 15.384C181.911 15.2488 182.237 15.1835 182.565 15.193C182.85 15.1584 183.139 15.2059 183.398 15.3299C183.657 15.4539 183.875 15.6493 184.027 15.893C184.291 16.5158 184.42 17.1869 184.408 17.863V23.074C184.407 23.7985 184.694 24.4937 185.206 25.0067C185.717 25.5198 186.412 25.8087 187.136 25.81H187.263C187.988 25.81 188.683 25.5221 189.196 25.0095C189.708 24.497 189.996 23.8019 189.996 23.077V17.229C189.873 13.033 188.093 10.874 184.536 10.874Z" fill="#4CA223"/>
</svg>
