<svg id="icon_setting" data-name="icon/setting" xmlns="http://www.w3.org/2000/svg" width="40" height="40" viewBox="0 0 40 40">
  <g id="settings" transform="translate(0 1)">
    <g id="Group_8272" data-name="Group 8272" transform="translate(0 0)">
      <path id="Path_8901" data-name="Path 8901" d="M36.917,15.371l-2.731-.463a15.421,15.421,0,0,0-1.1-2.65L34.7,10.007a2.4,2.4,0,0,0-.26-3.1L32.016,4.488a2.386,2.386,0,0,0-1.7-.707,2.362,2.362,0,0,0-1.39.447l-2.26,1.609a15.26,15.26,0,0,0-2.747-1.13l-.455-2.7A2.4,2.4,0,0,0,21.092,0H17.67A2.4,2.4,0,0,0,15.3,2.009l-.471,2.764a15.041,15.041,0,0,0-2.642,1.114L9.949,4.276a2.4,2.4,0,0,0-3.1.26L4.422,6.959a2.406,2.406,0,0,0-.26,3.1l1.626,2.284A15.062,15.062,0,0,0,4.706,15l-2.7.455A2.4,2.4,0,0,0,0,17.826v3.422a2.4,2.4,0,0,0,2.008,2.373l2.764.471a15.041,15.041,0,0,0,1.114,2.642l-1.6,2.227a2.4,2.4,0,0,0,.26,3.1L6.966,34.48a2.386,2.386,0,0,0,1.7.707,2.362,2.362,0,0,0,1.39-.447l2.284-1.626a15.376,15.376,0,0,0,2.568,1.057l.455,2.731a2.4,2.4,0,0,0,2.373,2.008h3.43A2.4,2.4,0,0,0,23.539,36.9L24,34.171a15.421,15.421,0,0,0,2.65-1.1L28.9,34.683a2.386,2.386,0,0,0,1.4.447h0a2.386,2.386,0,0,0,1.7-.707L34.422,32a2.406,2.406,0,0,0,.26-3.1l-1.609-2.26a15.31,15.31,0,0,0,1.1-2.65L36.9,23.54a2.4,2.4,0,0,0,2.008-2.373V17.744A2.372,2.372,0,0,0,36.917,15.371Zm-.187,5.8a.211.211,0,0,1-.179.211l-3.414.569a1.091,1.091,0,0,0-.878.8,13.012,13.012,0,0,1-1.414,3.406,1.1,1.1,0,0,0,.049,1.195L32.9,30.18a.221.221,0,0,1-.024.276l-2.422,2.422a.206.206,0,0,1-.154.065.2.2,0,0,1-.122-.041L27.359,30.9a1.1,1.1,0,0,0-1.195-.049,13.011,13.011,0,0,1-3.406,1.414,1.079,1.079,0,0,0-.8.878l-.577,3.414a.211.211,0,0,1-.211.179H17.743a.211.211,0,0,1-.211-.179l-.569-3.414a1.091,1.091,0,0,0-.8-.878A13.51,13.51,0,0,1,12.826,30.9a1.125,1.125,0,0,0-.553-.146,1.07,1.07,0,0,0-.634.2L8.794,32.976a.242.242,0,0,1-.122.041.218.218,0,0,1-.154-.065L6.1,30.53a.22.22,0,0,1-.024-.276l2-2.8a1.113,1.113,0,0,0,.049-1.2,12.889,12.889,0,0,1-1.431-3.4,1.113,1.113,0,0,0-.878-.8l-3.438-.585a.211.211,0,0,1-.179-.211V17.826a.211.211,0,0,1,.179-.211l3.389-.569a1.1,1.1,0,0,0,.886-.813,13,13,0,0,1,1.39-3.414,1.085,1.085,0,0,0-.057-1.187L5.958,8.787a.221.221,0,0,1,.024-.276L8.4,6.089a.206.206,0,0,1,.154-.065.2.2,0,0,1,.122.041l2.8,2a1.113,1.113,0,0,0,1.2.049,12.889,12.889,0,0,1,3.4-1.431,1.113,1.113,0,0,0,.8-.878l.585-3.438a.211.211,0,0,1,.211-.179h3.422a.211.211,0,0,1,.211.179l.569,3.389a1.1,1.1,0,0,0,.813.886,13.193,13.193,0,0,1,3.487,1.431,1.1,1.1,0,0,0,1.195-.049l2.8-2.016a.242.242,0,0,1,.122-.041.218.218,0,0,1,.154.065l2.422,2.422a.22.22,0,0,1,.024.276L30.9,11.551a1.1,1.1,0,0,0-.049,1.195,13.012,13.012,0,0,1,1.414,3.406,1.079,1.079,0,0,0,.878.8l3.414.577a.211.211,0,0,1,.179.211v3.422Z" transform="translate(0 -0.001)" fill="#999"/>
      <path id="Path_8902" data-name="Path 8902" d="M144.5,136a8.4,8.4,0,1,0,8.4,8.4A8.4,8.4,0,0,0,144.5,136Zm0,14.6a6.2,6.2,0,1,1,6.2-6.2A6.206,6.206,0,0,1,144.5,150.6Z" transform="translate(-125.038 -124.947)" fill="#999"/>
    </g>
  </g>
  <rect id="Rectangle_1484" data-name="Rectangle 1484" width="40" height="40" transform="translate(0)" fill="none"/>
</svg>
