<svg id="icon_sort" data-name="icon/sort" xmlns="http://www.w3.org/2000/svg" width="24" height="24" viewBox="0 0 24 24">
  <g id="sort-down" transform="translate(1.162 -18.371)">
    <g id="Group_5213" data-name="Group 5213" transform="translate(0 20.609)">
      <g id="Group_5212" data-name="Group 5212" transform="translate(0 0)">
        <path id="Path_4454" data-name="Path 4454" d="M1.227,91.216H13.595V88.761H1.227a1.227,1.227,0,0,0,0,2.455Z" transform="translate(0 -85.488)" fill="#52bf1d"/>
        <path id="Path_4455" data-name="Path 4455" d="M1.227,193.773H13.595v-2.455H1.227a1.227,1.227,0,0,0,0,2.455Z" transform="translate(0 -183.12)" fill="#52bf1d"/>
        <path id="Path_4456" data-name="Path 4456" d="M1.227,293.874h0a1.227,1.227,0,1,0,0,2.454H9.819a3.032,3.032,0,0,1,.259-2.455Z" transform="translate(0 -280.751)" fill="#52bf1d"/>
        <path id="Path_4457" data-name="Path 4457" d="M242.54,34.152a1.552,1.552,0,0,0-2.195,0l-1.274,1.274V22.161a1.552,1.552,0,0,0-3.1,0V35.426l-1.274-1.274a1.552,1.552,0,0,0-2.195,2.195l3.924,3.924a1.553,1.553,0,0,0,2.2,0l3.924-3.924A1.552,1.552,0,0,0,242.54,34.152Z" transform="translate(-220.9 -20.609)" fill="#52bf1d"/>
      </g>
    </g>
  </g>
  <rect id="Rectangle_1218" data-name="Rectangle 1218" width="24" height="24" fill="none"/>
</svg>
