<svg id="icon_bell" data-name="icon/bell" xmlns="http://www.w3.org/2000/svg" width="40" height="40" viewBox="0 0 40 40">
  <path id="bell_1_" data-name="bell (1)" d="M86.071,30.157a6.039,6.039,0,0,1-1.988-2.436c-1.713-3.263-2.073-7.859-2.073-11.14,0-.014,0-.028,0-.043a10.77,10.77,0,0,0-7.034-9.752V4.221A4.476,4.476,0,0,0,70.29,0H69.9a4.476,4.476,0,0,0-4.684,4.221V6.786a10.766,10.766,0,0,0-7.035,9.794c0,3.281-.36,7.877-2.073,11.14a6.04,6.04,0,0,1-1.988,2.436,1.052,1.052,0,0,0-.659,1.228,1.238,1.238,0,0,0,1.237.868h9.044c.051,3.119,2.88,5.643,6.352,5.643s6.3-2.524,6.352-5.643h9.044a1.238,1.238,0,0,0,1.237-.868A1.052,1.052,0,0,0,86.071,30.157ZM67.686,4.221a2.118,2.118,0,0,1,2.216-2h.388a2.118,2.118,0,0,1,2.216,2V6.066a13.255,13.255,0,0,0-4.82,0V4.221ZM70.1,35.671a3.725,3.725,0,0,1-3.884-3.418h7.769A3.725,3.725,0,0,1,70.1,35.671Zm4.968-5.643H57.513a11.391,11.391,0,0,0,.647-1.021c1.654-2.934,2.492-7.115,2.492-12.426,0-4.694,4.237-8.512,9.445-8.512s9.445,3.819,9.445,8.516c0,.014,0,.027,0,.041,0,5.29.843,9.455,2.492,12.381a11.4,11.4,0,0,0,.647,1.021Z" transform="translate(-50.434 1)" fill="#999"/>
  <rect id="Rectangle_1482" data-name="Rectangle 1482" width="40" height="40" fill="none"/>
</svg>
