<svg id="Layer_1" data-name="Layer 1" xmlns="http://www.w3.org/2000/svg" xmlns:xlink="http://www.w3.org/1999/xlink" viewBox="0 0 84.37 54.38"><defs><clipPath id="clip-path" transform="translate(0)"><rect width="84" height="54" fill="none"/></clipPath></defs><title>icon-concierge-voucher</title><g clip-path="url(#clip-path)"><g id="Mask_Group_622" data-name="Mask Group 622"><g id="coupon"><g id="Group_9236" data-name="Group 9236"><g id="Group_9235" data-name="Group 9235"><path id="Path_9191" data-name="Path 9191" d="M47.29,9.89a7.42,7.42,0,1,0,7.42,7.41h0A7.42,7.42,0,0,0,47.29,9.89Zm0,9.88a2.47,2.47,0,1,1,2.47-2.47A2.47,2.47,0,0,1,47.29,19.77Z" transform="translate(0)" fill="#52bf1d"/></g></g><g id="Group_9238" data-name="Group 9238"><g id="Group_9237" data-name="Group 9237"><path id="Path_9192" data-name="Path 9192" d="M67.07,29.66a7.42,7.42,0,1,0,7.41,7.42A7.42,7.42,0,0,0,67.07,29.66Zm0,9.89a2.48,2.48,0,1,1,2.47-2.47h0A2.48,2.48,0,0,1,67.07,39.55Z" transform="translate(0)" fill="#52bf1d"/></g></g><g id="Group_9240" data-name="Group 9240"><g id="Group_9239" data-name="Group 9239"><path id="Path_9193" data-name="Path 9193" d="M68.44,10.3A2.47,2.47,0,0,0,65,11h0L45.24,40.65a2.47,2.47,0,1,0,4.06,2.81l.05-.07L69.12,13.73A2.48,2.48,0,0,0,68.44,10.3Z" transform="translate(0)" fill="#52bf1d"/></g></g><g id="Group_9242" data-name="Group 9242"><g id="Group_9241" data-name="Group 9241"><path id="Path_9194" data-name="Path 9194" d="M81.9,0H2.47A2.48,2.48,0,0,0,0,2.47H0V17.3a2.47,2.47,0,0,0,2.47,2.47h0a7.42,7.42,0,1,1,0,14.83A2.48,2.48,0,0,0,0,37.07H0V51.91a2.48,2.48,0,0,0,2.47,2.47H81.9a2.47,2.47,0,0,0,2.47-2.47h0V2.47A2.47,2.47,0,0,0,81.9,0ZM79.43,49.43H24.72V47a2.48,2.48,0,0,0-4.95,0v2.47H4.94V39.3a12.36,12.36,0,0,0,0-24.22V4.94H20V7.42a2.47,2.47,0,0,0,4.94,0V4.94h54.5Z" transform="translate(0)" fill="#52bf1d"/></g></g><g id="Group_9244" data-name="Group 9244"><g id="Group_9243" data-name="Group 9243"><path id="Path_9195" data-name="Path 9195" d="M22.25,29.66a2.48,2.48,0,0,0-2.48,2.47v4.95a2.48,2.48,0,0,0,4.95,0V32.13A2.48,2.48,0,0,0,22.25,29.66Z" transform="translate(0)" fill="#52bf1d"/></g></g><g id="Group_9246" data-name="Group 9246"><g id="Group_9245" data-name="Group 9245"><path id="Path_9196" data-name="Path 9196" d="M22.25,14.83a2.48,2.48,0,0,0-2.48,2.47h0v4.95a2.48,2.48,0,0,0,4.95,0V17.3a2.48,2.48,0,0,0-2.47-2.47Z" transform="translate(0)" fill="#52bf1d"/></g></g></g></g></g></svg>