<svg id="icon_question" data-name="icon/question" xmlns="http://www.w3.org/2000/svg" width="40" height="40" viewBox="0 0 40 40">
  <g id="information_2_" data-name="information (2)" transform="translate(2.45 2.45)">
    <g id="Group_8169" data-name="Group 8169">
      <g id="Group_8168" data-name="Group 8168">
        <circle id="Ellipse_384" data-name="Ellipse 384" cx="1.713" cy="1.713" r="1.713" transform="translate(15.828 24.222)" fill="#999"/>
        <path id="Path_8761" data-name="Path 8761" d="M17.542,0A17.542,17.542,0,1,0,35.083,17.542,17.532,17.532,0,0,0,17.542,0Zm0,32.342a14.8,14.8,0,1,1,14.8-14.8A14.793,14.793,0,0,1,17.542,32.342Z" fill="#999"/>
        <path id="Path_8762" data-name="Path 8762" d="M181.482,128.5A5.488,5.488,0,0,0,176,133.982a1.37,1.37,0,1,0,2.741,0,2.741,2.741,0,1,1,2.741,2.741,1.37,1.37,0,0,0-1.37,1.37v3.426a1.37,1.37,0,1,0,2.741,0V139.29a5.482,5.482,0,0,0-1.37-10.79Z" transform="translate(-163.94 -119.695)" fill="#999"/>
      </g>
    </g>
  </g>
  <rect id="Rectangle_1470" data-name="Rectangle 1470" width="40" height="40" fill="none"/>
</svg>
