<svg id="icon_concierge" data-name="icon/concierge" xmlns="http://www.w3.org/2000/svg" width="24" height="24" viewBox="0 0 24 24">
  <rect id="Rectangle_296" data-name="Rectangle 296" width="24" height="24" fill="none"/>
  <path id="Path_911" data-name="Path 911" d="M21.549,6.977a9.386,9.386,0,0,0-18.143,0A2.31,2.31,0,0,0,1.521,9.243v2.6a2.31,2.31,0,0,0,1.563,2.183v1.087A5.925,5.925,0,0,0,9,21.03h.728A1.918,1.918,0,0,0,11.5,22.2h1.949a1.916,1.916,0,1,0,0-3.831H11.5a1.918,1.918,0,0,0-1.765,1.172H9a4.436,4.436,0,0,1-4.431-4.431V13.4a.744.744,0,0,0-.744-.744.82.82,0,0,1-.819-.818v-2.6a.819.819,0,0,1,.815-.819H4a.744.744,0,0,0,.729-.595,7.9,7.9,0,0,1,15.487,0,.744.744,0,0,0,.73.6h.167a.82.82,0,0,1,.819.819v2.6a.82.82,0,0,1-.819.818.744.744,0,1,0,0,1.488,2.309,2.309,0,0,0,2.306-2.306v-2.6A2.311,2.311,0,0,0,21.549,6.977ZM11.5,19.858h1.949a.428.428,0,1,1,0,.856H11.5a.428.428,0,0,1,0-.856Z" transform="translate(-0.407 1.033)" fill="#ccc"/>
  <path id="Path_912" data-name="Path 912" d="M48.643,36.041a6.967,6.967,0,1,0,6.967,6.966A6.975,6.975,0,0,0,48.643,36.041Zm0,12.446a5.479,5.479,0,1,1,5.479-5.48A5.486,5.486,0,0,1,48.643,48.487Z" transform="translate(-36.579 -31.433)" fill="#ccc"/>
</svg>
