<svg xmlns="http://www.w3.org/2000/svg" xmlns:xlink="http://www.w3.org/1999/xlink" width="24" height="24" viewBox="0 0 24 24">
  <defs>
    <clipPath id="clip-path">
      <rect width="24" height="24" fill="none"/>
    </clipPath>
  </defs>
  <g id="Repeat_Grid_10" data-name="Repeat Grid 10" clip-path="url(#clip-path)">
    <g transform="translate(-24 -19)">
      <g id="icon_bad" data-name="icon/bad" transform="translate(24 19)">
        <path id="Path_7824" data-name="Path 7824" d="M.5,11.6a11.1,11.1,0,1,1,22.2,0h0a9.25,9.25,0,0,1-18.5,0h0a7.4,7.4,0,1,1,14.8,0h0a5.55,5.55,0,0,1-11.1,0h0a3.7,3.7,0,0,1,7.4,0h0a1.85,1.85,0,1,1-3.7,0" transform="translate(0.467 1.428)" fill="none" stroke="#0d3976" stroke-linecap="round" stroke-linejoin="round" stroke-miterlimit="10" stroke-width="1.6"/>
        <rect id="Rectangle_1340" data-name="Rectangle 1340" width="24" height="24" fill="none"/>
      </g>
    </g>
  </g>
</svg>
