<svg id="icon_camera" data-name="icon/camera" xmlns="http://www.w3.org/2000/svg" width="32" height="32" viewBox="0 0 32 32">
  <g id="photo-camera" transform="translate(3.085 4.896)">
    <g id="Group_5847" data-name="Group 5847">
      <path id="Path_5395" data-name="Path 5395" d="M24.749,40.98a3.309,3.309,0,0,0-2.428-1.006h-3l-.684-1.824a2.492,2.492,0,0,0-.932-1.134,2.389,2.389,0,0,0-1.388-.476H9.444a2.389,2.389,0,0,0-1.388.476,2.492,2.492,0,0,0-.932,1.134l-.684,1.824h-3A3.309,3.309,0,0,0,1.006,40.98,3.309,3.309,0,0,0,0,43.408V55.427a3.308,3.308,0,0,0,1.006,2.428,3.308,3.308,0,0,0,2.428,1.006H22.321a3.435,3.435,0,0,0,3.434-3.434V43.408A3.308,3.308,0,0,0,24.749,40.98ZM17.123,53.664a5.787,5.787,0,0,1-4.246,1.764,5.788,5.788,0,0,1-4.246-1.764,5.991,5.991,0,0,1,0-8.491,5.787,5.787,0,0,1,4.246-1.764,5.788,5.788,0,0,1,4.246,1.764,5.991,5.991,0,0,1,0,8.491Z" transform="translate(0 -36.54)" fill="#52bf1d"/>
      <path id="Path_5396" data-name="Path 5396" d="M195.719,228.4a3.87,3.87,0,1,0,2.73,1.134A3.721,3.721,0,0,0,195.719,228.4Z" transform="translate(-182.842 -219.388)" fill="#52bf1d"/>
    </g>
  </g>
  <rect id="Rectangle_1323" data-name="Rectangle 1323" width="32" height="32" fill="none"/>
</svg>
