<svg id="icon_calendar" data-name="icon/calendar" xmlns="http://www.w3.org/2000/svg" width="24" height="24" viewBox="0 0 24 24">
  <g id="calendar-empty-page-outline" transform="translate(-0.905 3.13)">
    <g id="Group_5417" data-name="Group 5417" transform="translate(4.047)">
      <g id="Group_5416" data-name="Group 5416" transform="translate(0)">
        <path id="Path_4749" data-name="Path 4749" d="M20.74,2.082H18.921V1.151a.651.651,0,1,0-1.3,0v.931H9.434V1.151a.651.651,0,1,0-1.3,0v.931H6.314A1.769,1.769,0,0,0,4.547,3.849v13.09a1.769,1.769,0,0,0,1.767,1.767H20.74a1.769,1.769,0,0,0,1.767-1.767V3.849A1.769,1.769,0,0,0,20.74,2.082ZM5.849,3.849a.465.465,0,0,1,.465-.465H8.132v.743a.651.651,0,1,0,1.3,0V3.384H17.62v.743a.651.651,0,0,0,1.3,0V3.384H20.74a.465.465,0,0,1,.465.465V5.485H5.849ZM21.2,16.939a.465.465,0,0,1-.465.465H6.314a.465.465,0,0,1-.465-.465V6.787H21.2Z" transform="translate(-4.532 -0.485)" fill="#ccc"/>
        <path id="Path_4750" data-name="Path 4750" d="M20.255,18.236H5.829a1.784,1.784,0,0,1-1.782-1.782V3.364A1.784,1.784,0,0,1,5.829,1.582h1.8V.666a.666.666,0,1,1,1.332,0v.916H17.12V.666a.666.666,0,1,1,1.332,0v.916h1.8a1.784,1.784,0,0,1,1.782,1.782v13.09A1.784,1.784,0,0,1,20.255,18.236ZM5.829,1.612A1.754,1.754,0,0,0,4.077,3.364v13.09a1.753,1.753,0,0,0,1.752,1.751H20.255a1.754,1.754,0,0,0,1.752-1.751V3.364a1.754,1.754,0,0,0-1.752-1.752H18.421V.666a.636.636,0,0,0-1.271,0v.946H8.934V.666a.636.636,0,1,0-1.271,0v.946ZM20.255,16.934H5.829a.481.481,0,0,1-.48-.48V6.287H20.735V16.454A.481.481,0,0,1,20.255,16.934ZM5.379,6.318V16.454a.45.45,0,0,0,.45.45H20.255a.45.45,0,0,0,.45-.45V6.318Zm15.356-1.3H5.349V3.364a.481.481,0,0,1,.48-.48H7.662v.758a.636.636,0,1,0,1.271,0V2.884H17.15v.758a.636.636,0,0,0,1.271,0V2.884h1.833a.481.481,0,0,1,.48.48ZM5.379,4.985H20.7V3.364a.45.45,0,0,0-.45-.45h-1.8v.728a.666.666,0,1,1-1.332,0V2.914H8.964v.728a.666.666,0,0,1-1.332,0V2.914h-1.8a.45.45,0,0,0-.45.45Z" transform="translate(-4.047)" fill="#ccc"/>
      </g>
    </g>
  </g>
  <rect id="Rectangle_1258" data-name="Rectangle 1258" width="24" height="24" fill="none"/>
</svg>
