<svg id="Layer_1" data-name="Layer 1" xmlns="http://www.w3.org/2000/svg" xmlns:xlink="http://www.w3.org/1999/xlink" viewBox="0 0 104.33 62.84"><defs><clipPath id="clip-path" transform="translate(0 0.37)"><rect width="103" height="61" fill="none"/></clipPath></defs><title>icon-concierge-desk</title><g clip-path="url(#clip-path)"><g id="Mask_Group_623" data-name="Mask Group 623"><g id="Layer_26" data-name="Layer 26"><path id="Path_9197" data-name="Path 9197" d="M61.37,32.51a6.57,6.57,0,0,0-6.57-6.58h-29l-1.1-4.39h8.16a2.19,2.19,0,0,0,2.19-2.19h0V1.82A2.19,2.19,0,0,0,32.88-.37H2.19A2.19,2.19,0,0,0,0,1.82H0V19.35a2.2,2.2,0,0,0,2.19,2.2h8.15l-1.1,4.38H6.58a6.56,6.56,0,0,0-2.2,12.75V58.81a2.2,2.2,0,0,0,4.39,0h0V39.08H46a2.19,2.19,0,0,0,0-4.38H6.58a2.2,2.2,0,0,1,0-4.39H54.8a2.2,2.2,0,0,1,0,4.39,2.19,2.19,0,0,0-2.19,2.19h0V58.81a2.19,2.19,0,0,0,4.38,0V38.68A6.58,6.58,0,0,0,61.37,32.51ZM4.38,4h26.3V17.16H4.38Zm9.39,21.92,1.1-4.39h5.34l1.09,4.39Z" transform="translate(0 0.37)" fill="#52bf1d"/></g><g id="Group_9247" data-name="Group 9247"><path id="chair" d="M100.65,27h-4a1.68,1.68,0,0,0-1.69,1.68h0v3.17a5.84,5.84,0,0,0-2.49-.59,5.69,5.69,0,0,0,.75-3.63l-2.1-17.6c-.47-4-4.22-7-8.7-7H74.47c-4.48,0-8.23,3-8.7,7.05l-2.1,17.6a5.69,5.69,0,0,0,.75,3.63,6.15,6.15,0,0,0-2.49.59V28.7A1.69,1.69,0,0,0,60.24,27h-4a1.68,1.68,0,0,0,0,3.36h2.36v6a1.36,1.36,0,0,0,0,.29,5.07,5.07,0,0,0,0,.55,6,6,0,0,0,6,6H76.74v8.42H66.64a4.71,4.71,0,0,0-4.71,4.71v2.47a1.68,1.68,0,1,0,3.36,0V56.31A1.36,1.36,0,0,1,66.64,55h10.1v3.82a1.69,1.69,0,0,0,3.37,0V55h10.1a1.36,1.36,0,0,1,1.35,1.35v2.47a1.68,1.68,0,0,0,3.36,0V56.31a4.73,4.73,0,0,0-4.71-4.72H80.11V43.18H92.34a6,6,0,0,0,6-6,4.93,4.93,0,0,0,0-.55,1.43,1.43,0,0,0,0-.29v-6h2.36a1.69,1.69,0,0,0,0-3.37ZM67,28.05l2.1-17.6c.28-2.33,2.58-4.08,5.36-4.08h7.91c2.78,0,5.09,1.75,5.36,4.08l2.1,17.6A2.44,2.44,0,0,1,89,30.23a3.8,3.8,0,0,1-2.74,1.05H70.59a3.84,3.84,0,0,1-2.75-1.05A2.49,2.49,0,0,1,67,28.05ZM92.34,39.81H64.51a2.58,2.58,0,1,1,0-5.16H92.34a2.58,2.58,0,0,1,0,5.16Z" transform="translate(0 0.37)" fill="#52bf1d" stroke="#fff" stroke-linejoin="bevel" stroke-width="4"/><path id="chair_1_2" data-name="chair 1 2" d="M101.13,26.86h-4a1.69,1.69,0,0,0-1.69,1.68h0v3.17a5.84,5.84,0,0,0-2.49-.59,5.69,5.69,0,0,0,.75-3.63L91.56,9.89c-.47-4-4.22-7-8.7-7H75c-4.48,0-8.23,3-8.7,7.05l-2.1,17.6a5.69,5.69,0,0,0,.75,3.63,5.84,5.84,0,0,0-2.49.59V28.55a1.69,1.69,0,0,0-1.69-1.69h-4a1.69,1.69,0,0,0,0,3.37H59v6a1.43,1.43,0,0,0,0,.29,5.07,5.07,0,0,0,0,.55A6,6,0,0,0,65,43H77.22v8.42H67.12a4.71,4.71,0,0,0-4.71,4.71v2.47a1.68,1.68,0,1,0,3.36,0V56.16a1.36,1.36,0,0,1,1.35-1.35h10.1v3.82a1.69,1.69,0,0,0,3.37,0V54.81h10.1A1.36,1.36,0,0,1,92,56.16v2.47a1.68,1.68,0,0,0,3.36,0V56.16a4.72,4.72,0,0,0-4.71-4.72H80.59V43H92.82a6,6,0,0,0,6-6,4.93,4.93,0,0,0,0-.55,1.5,1.5,0,0,0,0-.29v-6h2.36a1.69,1.69,0,0,0,0-3.37Zm-33.64,1,2.1-17.61C69.87,8,72.18,6.21,75,6.21h7.91c2.78,0,5.09,1.76,5.36,4.08l2.1,17.61a2.45,2.45,0,0,1-.83,2.18,3.8,3.8,0,0,1-2.74,1.05H71.07a3.84,3.84,0,0,1-2.75-1.05A2.5,2.5,0,0,1,67.49,27.9ZM92.82,39.66H65a2.58,2.58,0,0,1,0-5.16H92.82a2.58,2.58,0,1,1,0,5.16Z" transform="translate(0 0.37)" fill="#52bf1d"/></g></g></g></svg>