<svg xmlns="http://www.w3.org/2000/svg" width="40" height="40" viewBox="0 0 40 40">
  <g id="Group_4061" data-name="Group 4061" transform="translate(-3168.08 -3688.08)">
    <g id="Ellipse_340" data-name="Ellipse 340" transform="translate(3168.08 3688.08)" fill="#52bf1d" stroke="#52bf1d" stroke-width="1">
      <circle cx="20" cy="20" r="20" stroke="none"/>
      <circle cx="20" cy="20" r="19.5" fill="none"/>
    </g>
    <g id="megaphone" transform="translate(3178.055 3698.039)">
      <g id="Group_3915" data-name="Group 3915">
        <g id="Group_3914" data-name="Group 3914">
          <path id="Path_2592" data-name="Path 2592" d="M18.157,61a2.358,2.358,0,0,0-2.328,2l-.716.716a7.067,7.067,0,0,1-4.909,1.99H5.494a2.358,2.358,0,0,0-2.22,1.57H3.14a3.14,3.14,0,0,0,0,6.279h.135a2.366,2.366,0,0,0,1.435,1.435v4.059a2.355,2.355,0,0,0,4.709,0V75.128H10.2a7.068,7.068,0,0,1,4.909,1.99l.716.716a2.355,2.355,0,0,0,4.683-.351V63.355A2.357,2.357,0,0,0,18.157,61ZM3.14,71.988a1.57,1.57,0,0,1,0-3.14Zm4.709,7.064a.785.785,0,0,1-1.57,0V75.128h1.57Zm1.57-5.494H5.494a.786.786,0,0,1-.785-.785V68.064a.786.786,0,0,1,.785-.785H9.419ZM15.8,75.617a8.579,8.579,0,0,0-4.819-2.023v-6.35A8.578,8.578,0,0,0,15.8,65.22Zm3.14,1.866a.786.786,0,0,1-.785.785h0a.786.786,0,0,1-.785-.785V63.355a.785.785,0,0,1,1.57,0Z" transform="translate(-1 -61)" fill="#fff"/>
        </g>
      </g>
    </g>
  </g>
</svg>
