<svg id="icon_image" data-name="icon/image" xmlns="http://www.w3.org/2000/svg" width="32" height="32" viewBox="0 0 32 32">
  <g id="photo" transform="translate(5.333 5.333)">
    <path id="Path_5398" data-name="Path 5398" d="M20,3H2.12A2.123,2.123,0,0,0,0,5.12V22.579A2.123,2.123,0,0,0,2.12,24.7H20a2.123,2.123,0,0,0,2.12-2.12V5.12A2.123,2.123,0,0,0,20,3Zm0,2.12V14.4l-3.582-3.364a1.3,1.3,0,0,0-1.94.155l-4.217,5.461a.743.743,0,0,1-.587.283.722.722,0,0,1-.429-.138l-2.741-2a1.769,1.769,0,0,0-2.1.076L2.12,16.8V5.12Z" transform="translate(0 -3)" fill="#52bf1d"/>
    <path id="Path_5399" data-name="Path 5399" d="M86.191,64.382A2.191,2.191,0,1,0,84,62.191,2.194,2.194,0,0,0,86.191,64.382Z" transform="translate(-78.063 -55.971)" fill="#52bf1d"/>
  </g>
  <rect id="Rectangle_1325" data-name="Rectangle 1325" width="32" height="32" fill="none"/>
</svg>
