<svg id="icon_seachTerms" data-name="icon/seachTerms" xmlns="http://www.w3.org/2000/svg" width="24" height="24" viewBox="0 0 24 24">
  <rect id="Rectangle_310" data-name="Rectangle 310" width="24" height="24" fill="none"/>
  <path id="Path_506" data-name="Path 506" d="M21.511,19.121l-4.535-4.535a9.054,9.054,0,0,0,1.64-5.275,9.143,9.143,0,0,0-.734-3.616A9.115,9.115,0,0,0,12.924.737a9.276,9.276,0,0,0-7.232,0A9.115,9.115,0,0,0,.734,5.695a9.276,9.276,0,0,0,0,7.232,9.117,9.117,0,0,0,4.958,4.958,9.147,9.147,0,0,0,3.616.734,9.055,9.055,0,0,0,5.275-1.64L19.118,21.5a1.571,1.571,0,0,0,1.19.5,1.692,1.692,0,0,0,1.2-2.882Zm-8.019-5.626a5.7,5.7,0,0,1-4.185,1.739,5.7,5.7,0,0,1-4.184-1.739A5.7,5.7,0,0,1,3.385,9.311,5.7,5.7,0,0,1,5.123,5.126,5.7,5.7,0,0,1,9.308,3.388a5.705,5.705,0,0,1,4.185,1.739,5.7,5.7,0,0,1,1.739,4.184A5.7,5.7,0,0,1,13.492,13.495Z" transform="translate(1 0.997)" fill="#52bf1d"/>
</svg>
