<svg id="icon_earnPoint" data-name="icon/earnPoint" xmlns="http://www.w3.org/2000/svg" width="40" height="40" viewBox="0 0 40 40">
  <g id="money" transform="translate(2 3)">
    <g id="Group_6505" data-name="Group 6505" transform="translate(0 0)">
      <g id="Group_6504" data-name="Group 6504">
        <path id="Path_6484" data-name="Path 6484" d="M26.653,14.909a3.181,3.181,0,0,0-.306-.565h1.791a3.182,3.182,0,0,0,0-6.364H22.629A3.183,3.183,0,0,0,20.021,3H3.165a3.182,3.182,0,0,0,0,6.364H8.674a3.187,3.187,0,0,0,0,3.6H6.88a3.183,3.183,0,0,0-1.967,5.672,3.187,3.187,0,0,0,0,4.98,3.187,3.187,0,0,0,0,4.98A3.183,3.183,0,0,0,6.88,34.265h8.108a11.677,11.677,0,0,0,20.237-8.024A11.77,11.77,0,0,0,26.653,14.909Zm1.485-5.545a1.8,1.8,0,0,1,0,3.6H11.283a1.8,1.8,0,0,1,0-3.6ZM3.165,7.98a1.8,1.8,0,0,1,0-3.6H20.021a1.8,1.8,0,0,1,0,3.6ZM6.88,14.344H23.736a1.78,1.78,0,0,1,.781.181c-.325-.027-.654-.042-.987-.042a11.628,11.628,0,0,0-8.276,3.458H6.88a1.8,1.8,0,0,1,0-3.6Zm0,4.98h7.2a11.751,11.751,0,0,0-1.768,3.6H6.88a1.8,1.8,0,0,1,0-3.6Zm0,4.98h5.113a11.831,11.831,0,0,0-.042,3.6H6.88a1.8,1.8,0,0,1,0-3.6Zm0,8.577a1.8,1.8,0,0,1,0-3.6h5.352a11.742,11.742,0,0,0,1.651,3.6Zm16.649,3.735a10.376,10.376,0,1,1,10.32-10.375A10.36,10.36,0,0,1,23.529,36.617Z" transform="translate(0 -3)" fill="#fff"/>
        <g id="Group_6506" data-name="Group 6506" transform="translate(19.714 18.037)">
          <path id="Path_910" data-name="Path 910" d="M879.016,508.182a1.2,1.2,0,0,1-.885-.369,1.216,1.216,0,0,1-.367-.89v-8.5a1.216,1.216,0,0,1,.367-.89,1.2,1.2,0,0,1,.885-.369h2.59a7.537,7.537,0,0,1,1.719.181,4.319,4.319,0,0,1,1.388.586,2.718,2.718,0,0,1,.964,1.121,4.3,4.3,0,0,1-.007,3.392,3.12,3.12,0,0,1-.957,1.186,4.3,4.3,0,0,1-1.374.673,5.91,5.91,0,0,1-1.661.224h-1.137a.127.127,0,0,0-.144.145v2.256a1.216,1.216,0,0,1-.367.89,1.2,1.2,0,0,1-.885.369Zm1.381-5.887a.127.127,0,0,0,.144.145h1.007q1.9,0,1.9-1.692a1.3,1.3,0,0,0-.489-1.15,2.614,2.614,0,0,0-1.482-.34h-.935a.128.128,0,0,0-.144.145Z" transform="translate(-877.765 -497.16)" fill="#fff"/>
        </g>
      </g>
    </g>
  </g>
  <rect id="Rectangle_1336" data-name="Rectangle 1336" width="40" height="40" fill="none"/>
</svg>
