<svg id="icon_mypage" data-name="icon/mypage" xmlns="http://www.w3.org/2000/svg" width="24" height="24" viewBox="0 0 24 24">
  <g id="avatar" transform="translate(-36.385 2)">
    <g id="Group_6546" data-name="Group 6546" transform="translate(39.385)">
      <path id="Path_6535" data-name="Path 6535" d="M51.195,9.543a5.277,5.277,0,1,0-6.205,0,8.721,8.721,0,0,0-5.6,8.135,2.906,2.906,0,0,0,2.9,2.9H53.9a2.906,2.906,0,0,0,2.9-2.9A8.721,8.721,0,0,0,51.195,9.543ZM44.4,5.277a3.694,3.694,0,1,1,3.694,3.694A3.7,3.7,0,0,1,44.4,5.277ZM53.9,19H42.287a1.321,1.321,0,0,1-1.319-1.319,7.124,7.124,0,1,1,14.248,0A1.321,1.321,0,0,1,53.9,19Z" transform="translate(-39.385)" fill="#ccc"/>
    </g>
  </g>
  <rect id="Rectangle_1338" data-name="Rectangle 1338" width="24" height="24" fill="none"/>
</svg>
