<svg xmlns="http://www.w3.org/2000/svg" xmlns:xlink="http://www.w3.org/1999/xlink" width="44" height="44" viewBox="0 0 44 44">
  <defs>
    <clipPath id="clip-path">
      <rect width="44" height="44" fill="none"/>
    </clipPath>
    <clipPath id="clip-path-2">
      <rect width="13" height="17.948" fill="none"/>
    </clipPath>
  </defs>
  <g id="Repeat_Grid_10" data-name="Repeat Grid 10" clip-path="url(#clip-path)">
    <g id="Group_5380" data-name="Group 5380" transform="translate(-275 -754)">
      <g id="Rectangle_1240" data-name="Rectangle 1240" transform="translate(275 754)" fill="#fff" stroke="#f0f0f0" stroke-width="1">
        <rect width="44" height="44" rx="11" stroke="none"/>
        <rect x="0.5" y="0.5" width="43" height="43" rx="10.5" fill="none"/>
      </g>
      <g id="icon_location" data-name="icon/location" transform="translate(285 759)">
        <g id="maps-and-flags" transform="translate(6 3)" clip-path="url(#clip-path-2)">
          <g id="maps-and-flags-2" data-name="maps-and-flags" transform="translate(-70.573)">
            <g id="Group_5379" data-name="Group 5379" transform="translate(70.573)">
              <path id="Path_4711" data-name="Path 4711" d="M77.073,0a6.507,6.507,0,0,0-6.5,6.5c0,4.448,5.817,10.978,6.065,11.254a.585.585,0,0,0,.871,0c.248-.276,6.065-6.806,6.065-11.254A6.507,6.507,0,0,0,77.073,0Zm0,9.77a3.27,3.27,0,1,1,3.27-3.27A3.274,3.274,0,0,1,77.073,9.77Z" transform="translate(-70.573)" fill="#52bf1d"/>
            </g>
          </g>
        </g>
        <rect id="Rectangle_1239" data-name="Rectangle 1239" width="24" height="24" fill="none"/>
      </g>
      <text id="MAP" transform="translate(287 790)" fill="#52bf1d" font-size="8" font-family="SegoeUI, Segoe UI"><tspan x="0" y="0">MAP</tspan></text>
    </g>
  </g>
</svg>
