<svg id="icon_massage" data-name="icon/massage" xmlns="http://www.w3.org/2000/svg" width="24" height="24" viewBox="0 0 24 24">
  <rect id="Rectangle_294" data-name="Rectangle 294" width="24" height="24" fill="none"/>
  <g id="Group_2847" data-name="Group 2847" transform="translate(-1057.23 -115.093)">
    <path id="Path_909" data-name="Path 909" d="M1069.163,116.093c-6.038,0-10.933,4.283-10.933,9.566a9.156,9.156,0,0,0,4.1,7.461v3.394a.813.813,0,0,0,1.235.7l3.554-2.157a12.538,12.538,0,0,0,2.044.173c6.038,0,10.933-4.283,10.933-9.566S1075.2,116.093,1069.163,116.093Zm0,17.766a10.941,10.941,0,0,1-2.051-.2.7.7,0,0,0-.49.087l-2.716,1.633a.175.175,0,0,1-.266-.153l.033-2.464a.7.7,0,0,0-.314-.591,7.851,7.851,0,0,1-3.764-6.513c0-4.528,4.283-8.2,9.566-8.2s9.567,3.671,9.567,8.2S1074.446,133.859,1069.163,133.859Z" fill="#ccc"/>
    <circle id="Ellipse_308" data-name="Ellipse 308" cx="1.251" cy="1.251" r="1.251" transform="translate(1063.674 124.515)" fill="#ccc"/>
    <circle id="Ellipse_309" data-name="Ellipse 309" cx="1.251" cy="1.251" r="1.251" transform="translate(1068.112 124.515)" fill="#ccc"/>
    <circle id="Ellipse_310" data-name="Ellipse 310" cx="1.251" cy="1.251" r="1.251" transform="translate(1072.55 124.515)" fill="#ccc"/>
  </g>
</svg>
