<svg id="コンポーネント_66" data-name="コンポーネント 66" xmlns="http://www.w3.org/2000/svg" width="40" height="40" viewBox="0 0 40 40">
  <path id="discuss-issue" d="M28.82,24.6a3.272,3.272,0,0,1-1.437,2.442c-.23.2-.657.568-.656.7a.939.939,0,0,1-.926.966h-.008a.941.941,0,0,1-.934-.95,2.927,2.927,0,0,1,1.323-2.2c.465-.407.771-.693.771-.956a.925.925,0,1,0-1.848,0,.935.935,0,1,1-1.868,0,2.794,2.794,0,1,1,5.584,0Zm-3,5.011a.937.937,0,0,0-.913.973v.007a.934.934,0,0,0,.913.969.976.976,0,0,0,0-1.949ZM6.993,36.386a.974.974,0,0,0,0,1.946h.078a.974.974,0,0,0,0-1.946Zm3.246,0a.974.974,0,0,0,0,1.946h.078a.974.974,0,0,0,0-1.946Zm27.43-15.537V31.8a4.587,4.587,0,0,1-4.485,4.7H21.072c-.237,0-.432,0-.595,0s-.363-.005-.438,0c-.078.054-.27.237-.454.414l-.245.232-3.427,3.253a.921.921,0,0,1-1.016.172.993.993,0,0,1-.576-.89V29.36H4.537a2.733,2.733,0,0,0-2.669,2.765V43.074a2.689,2.689,0,0,0,2.669,2.715H18.066a.919.919,0,0,1,.623.275l2.792,2.681V39.5a.935.935,0,1,1,1.868,0V50.95a.962.962,0,0,1-.55.885.865.865,0,0,1-.37.078.924.924,0,0,1-.63-.265L17.7,47.734H4.537A4.6,4.6,0,0,1,0,43.074V32.125a4.643,4.643,0,0,1,4.537-4.711H14.32V20.849a4.624,4.624,0,0,1,4.553-4.675H33.185A4.568,4.568,0,0,1,37.669,20.849Zm-1.868,0a2.658,2.658,0,0,0-2.617-2.729H18.873a2.714,2.714,0,0,0-2.685,2.729v16.62L18.066,35.7c.087-.083.184-.158.255-.227a2.313,2.313,0,0,1,2.2-.93c.153,0,.334,0,.556,0H33.184A2.677,2.677,0,0,0,35.8,31.8V20.849Z" transform="translate(1 -14.174)" fill="#fff"/>
  <rect id="Rectangle_1472" data-name="Rectangle 1472" width="40" height="40" fill="none"/>
</svg>
