<svg id="Layer_1" data-name="Layer 1" xmlns="http://www.w3.org/2000/svg" xmlns:xlink="http://www.w3.org/1999/xlink"
     viewBox="0 0 271 240">
    <defs>
        <clipPath id="clip-path" transform="translate(0 -1)">
            <circle cx="141" cy="120" r="120" fill="none"/>
        </clipPath>
    </defs>
    <title>icon-concierge-staff</title>
    <g id="Group_9282" data-name="Group 9282">
        <g clip-path="url(#clip-path)">
            <g id="Mask_Group_624" data-name="Mask Group 624">
                <circle id="Ellipse_407" data-name="Ellipse 407" cx="142" cy="119" r="119" fill="#ededed"/>
                <g id="Group_9252" data-name="Group 9252">
                    <path id="Path_9198" data-name="Path 9198"
                          d="M165.08,54.14c2.52,6.82,2.53,15.1,1.91,24.31-.15,2.2,4.91,8,5.25,14.51.27,5.3-.28,9.87,1.48,13.4,5,10.09,13.54,12.86,8.46,39.82,0,0-32.22-17.36-33.08-18.78-6.23-10.4-27-27.26-32.53-48.1a42.12,42.12,0,0,1,1.25-24.57C127.46,28.05,156.92,32.05,165.08,54.14Z"
                          transform="translate(0 -1)" fill="#632404"/>
                    <path id="Path_9200" data-name="Path 9200"
                          d="M143.2,302l.17,7.3c.5,14-1.75,12.7-1.42,26,.44,17.9,2.11,27.37.87,45.21-.12,1.75-.23,4.82-.51,7.65v0q-1.12,7.58-2.27,15.15l11,10.84,5.06.08,5.64-9.84c-1.67-7.35-4.11-13.52-5-19-1.28-7.94-.57-15.7.87-24.13,2.39-14,6.3-20.53,7.07-30,.88-10.84-.6-4.45-1.59-22l1.14-6.58h0c4.23-17.11,7.44-40.2,9.41-58.28,1.24-11.27,0-19.33.22-24,.33-6.64-9-22.63-11.55-34.54l-20.3-.46L140.92,234l2.55.05C143.34,250.42,142.8,285.69,143.2,302Z"
                          transform="translate(0 -1)" fill="#f0c17d"/>
                    <path id="Path_9201" data-name="Path 9201"
                          d="M139.24,302l-.17,7.3c-.5,14,1.75,12.7,1.42,26-.44,17.9-2.11,27.37-.87,45.21.14,2,.26,5.59.63,8.67.34,2.86,1.08,6.66,1.07,8l-3.27,7.24c-11.84,3.91-12.6,5.95-15.48-5.58.09-2.29,1.8-7.65,2.37-9.79.31-1.19.58-2.48.77-3.69,1.28-7.94.57-15.7-.87-24.13-2.4-14-6.3-20.53-7.07-30-.88-10.84.59-4.45,1.59-22l-1.14-6.58h0c-4.23-17.11-7.44-40.2-9.41-58.28-1.24-11.27,0-19.33-.22-24-.33-6.64,9-22.63,11.55-34.54l20.3-.46,1.1,48.72-2.55.05C139.09,250.42,139.64,285.69,139.24,302Z"
                          transform="translate(0 -1)" fill="#ffdba7"/>
                    <path id="Path_9202" data-name="Path 9202"
                          d="M141.29,395.89l1.12,7.4-11,10.85-5.06.07-5.64-9.84,2.11-7.75C123.51,409.61,139.55,407.75,141.29,395.89Z"
                          transform="translate(0 -1)" fill="#05345e"/>
                    <path id="Path_9203" data-name="Path 9203"
                          d="M118.1,190.55c-2.8,7.12-12.83,26.64-12.5,33.28.3,6,6.58,57.79,8.46,68.52h54.33c1.88-10.73,8.15-62.56,8.45-68.52.33-6.64-9.7-26.16-12.5-33.28l-22-.41v0l-1.12,0-1.11,0v0Z"
                          transform="translate(0 -1)" fill="#084478"/>
                    <path id="Path_9204" data-name="Path 9204"
                          d="M161.39,143.85c2.79-3.11,6.91-14.46,9.16-23,1.15-4.38,2.26-8.13-2-9-5-.59-8-.87-10.57-1.59a11.88,11.88,0,0,1-5.33-2.68c-2.9-3.9-3.31-10.27-1.58-16.91H130.53c1.73,6.64,1.5,13.64-.95,16.78s-12.55,3.93-13.24,4c-6.14.88-2.2,19.46,3.14,28.66C124,147.93,152,143.85,161.39,143.85Z"
                          transform="translate(0 -1)" fill="#ffdba7"/>
                    <path id="Path_9205" data-name="Path 9205"
                          d="M130.53,90.64a34.51,34.51,0,0,1,1.11,7.57c4.86,4.14,14.47,8,21.62,9.85-3.61-3.24-3.88-10.94-2.19-17.42Z"
                          transform="translate(0 -1)" fill="#f0c17d"/>
                    <path id="Path_9206" data-name="Path 9206"
                          d="M159.53,67.11c1.75-2.6,3.8-.82,3.17,2.35-.53,2.59-1.72,5.53-2.38,8.47-.45,2-1.17,3.45-2.93,3.09A24.46,24.46,0,0,1,154.27,88a28.83,28.83,0,0,1-5.85,7c-3.19,2.83-5.29,4.28-7.34,4.28s-3.94-1.37-7.52-4.49a29.91,29.91,0,0,1-4.88-5.65,25.43,25.43,0,0,1-3.8-8.07c-1.63.24-2.33-1.17-2.76-3.12-.66-2.94-1.86-5.88-2.38-8.47-.57-2.83,1-4.55,2.6-3a46.23,46.23,0,0,1,.58-8.8c2.56-16.65,33.55-14.26,36.3,1.5A33.85,33.85,0,0,1,159.53,67.11Z"
                          transform="translate(0 -1)" fill="#ffdba7"/>
                    <path id="Path_9207" data-name="Path 9207"
                          d="M167.28,158.29,163,185.14c1.5,3.57,4.7,14.12,7.44,20.73H112c2.73-6.61,5.92-17.17,7.42-20.73-3.32-14.35-4.56-29.21-6.13-43.14-.38-2.6-3.42-22.77-5.29-26.73,1.23-2.06,3.54-3.37,6.7-3.82.3,0,3.32-.2,6.38-.6,3.47-.6,5.17-1,8-2.88l12.2,10.79,11.23-11.67c2.59,2.78,6.76,3.36,8.47,3.67,3.3.48,6.56.64,6.88.69,3.14.45,5.43,1.74,6.67,3.79a147.69,147.69,0,0,0-5.06,29.89l-1.77,10.53Z"
                          transform="translate(0 -1)" fill="#d6e1e3"/>
                    <path id="Path_9208" data-name="Path 9208"
                          d="M141.34,396l-1.11,7.4,11,10.84,5,.08,5.64-9.85-2.11-7.74C159.12,409.73,143.09,407.87,141.34,396Z"
                          transform="translate(0 -1)" fill="#05345e"/>
                    <path id="Path_9209" data-name="Path 9209"
                          d="M123.9,73c1.83-10.72,23.2-7.41,27.92-22.61,6.5,3,7,15.79,7.07,23.35,6.34-16.39,2.28-36.29-17.37-36.14S116.38,58.37,123.9,73Z"
                          transform="translate(0 -1)" fill="#752a05"/>
                    <path id="Path_9210" data-name="Path 9210"
                          d="M105.45,121.14,94,168.24c-1.15,4.75-.63,10.22,3.54,11.61,1.92.64,8.93-1.59,10.82-6.34l7.89-30.76c3.5-7.92-3.32-27.65-7.14-28.57C108.44,114,107.44,115.46,105.45,121.14Z"
                          transform="translate(0 -1)" fill="#d6e1e3"/>
                    <g id="Group_9250" data-name="Group 9250">
                        <path id="Path_9211" data-name="Path 9211"
                              d="M141.19,145.24l-19.38-34.48c-3.4.53-7.14.71-7.47.76.78,6.16,2.82,29.58-3.3,40.64l8.09,34.93h22.08V145.2Z"
                              transform="translate(0 -1)" fill="#576775"/>
                        <path id="Path_9212" data-name="Path 9212"
                              d="M141.24,145.24l19.38-34.48c3.4.53,7.14.71,7.48.76-.79,6.16-2.83,29.58,3.29,40.64l-8.09,34.93H136.45l4.67-41.72Z"
                              transform="translate(0 -1)" fill="#576775"/>
                    </g>
                    <path id="Path_9213" data-name="Path 9213"
                          d="M141.22,119l-11.33-12.37c-3.93,3.54-6.91,4-11.48,4.42a26.79,26.79,0,0,0,14.13,2.46Z"
                          transform="translate(0 -1)" fill="#f2f6f7"/>
                    <path id="Path_9214" data-name="Path 9214"
                          d="M141.23,119l11.33-12.37c3.93,3.54,6.91,4,11.48,4.42a26.81,26.81,0,0,1-14.14,2.46Z"
                          transform="translate(0 -1)" fill="#f2f6f7"/>
                    <rect id="Rectangle_1557" data-name="Rectangle 1557" x="74.59" y="183.82" width="133.25"
                          height="234.48" fill="#632404"/>
                    <rect id="Rectangle_1558" data-name="Rectangle 1558" x="67.02" y="179.52" width="148.39"
                          height="23.47" fill="#752a05"/>
                    <g id="Group_9251" data-name="Group 9251">
                        <path id="Path_9216" data-name="Path 9216"
                              d="M146.27,173.21l14.25-6.72,13.67,12.17-3.7.4-8.92-5.16L155.33,178c-5.7,3.76-4.31,4.15-10.64,2l-6.14-2.86,2.66-5.16Z"
                              transform="translate(0 -1)" fill="#f0c17d"/>
                        <path id="Path_9217" data-name="Path 9217"
                              d="M145.42,172.21l-.5,8.17c-8-.16-29.88,1.42-39.23,1.38-2.52,0-7-.51-9.75-2.33-1.88-1.25-2.72-5.22-2.59-7.17.36-5.24,9.61-6,12.86-5.63Z"
                              transform="translate(0 -1)" fill="#e4eced"/>
                    </g>
                    <rect id="Rectangle_1559" data-name="Rectangle 1559" x="150.8" y="133.84" width="17.67"
                          height="11.18" fill="#f2f6f7"/>
                </g>
            </g>
        </g>
        <g id="Group_9281" data-name="Group 9281">
            <path id="Path_9248" data-name="Path 9248"
                  d="M206,133.27l15.22,2.87,10.16-14.63-3.63.51-7.3,7-6.94-2.35c-6.35-2.15-5.11-2.85-10.65.65l-5.18,4.13,3.77,4.19Z"
                  transform="translate(0 -1)" fill="#f0c17d"/>
            <path id="Path_9250" data-name="Path 9250"
                  d="M172.58,113.11c1.7.77,3.82,5.85,4.56,8.59L187,158.19c1.81,6.24.76,16.43-3.25,17-4.75.69-7.81-5-11.38-13.86l-4.26-15.76c.76-4.63-3.73-28.82,0-34.06A11.17,11.17,0,0,1,172.58,113.11Z"
                  transform="translate(0 -1)" fill="#d6e1e3"/>
            <path id="Path_9251" data-name="Path 9251"
                  d="M181.73,155.57c4-7,12.33-20.15,16.86-26.86l8.93,5.39c-7.1,14.51-11,29.23-21.7,40.28-1.84,1.9-3.31,1-3.79.51C180,172.91,179.87,159.8,181.73,155.57Z"
                  transform="translate(0 -1)" fill="#d6e1e3"/>
        </g>
        <circle id="Ellipse_408" data-name="Ellipse 408" cx="264" cy="208" r="7" fill="#ededed"/>
        <circle id="Ellipse_409" data-name="Ellipse 409" cx="246" cy="231" r="5" fill="#ededed"/>
        <circle id="Ellipse_33" data-name="Ellipse 33" cx="35" cy="22" r="7" fill="#ededed"/>
        <circle id="Ellipse_34" data-name="Ellipse 34" cx="21" cy="48" r="5" fill="#ededed"/>
        <circle id="Ellipse_410" data-name="Ellipse 410" cx="4.5" cy="28.5" r="4.5" fill="#ededed"/>
    </g>
</svg>